<svg xmlns="http://www.w3.org/2000/svg" viewBox="0 0 300 300"><defs><style>.cls-1{fill:none;}.cls-2{fill:#06205c;}</style></defs><title>iconoCreditos</title><g id="Capa_2" data-name="Capa 2"><g id="Capa_1-2" data-name="Capa 1"><g id="iconoCreditos"><path class="cls-1" d="M300,300H0V0H300Z"/><path class="cls-2" d="M36.16,219.56V177c-2.79,0-5.39.05-8,0-11.92-.29-20.67-9.12-20.79-21,0-3,0-6,0-9,.09-12.43,8.8-21.19,21.37-21.44,2.31,0,4.61,0,7.27,0V81.27c-2.77,0-5.54.06-8.29,0a20.9,20.9,0,0,1-20.32-20c-.11-3.15,0-6.31,0-9.46,0-14.8,8.39-23.25,23.11-23.27q25.73,0,51.47,0c54.31,0,108.63.4,162.93-.17A46.72,46.72,0,0,1,292.65,76c-.8,49.8-.22,99.63-.23,149.44,0,26.64-19.58,46.19-46.35,46.21q-108,0-215.91,0C16,271.63,7.4,263.1,7.37,249.09c0-2.66,0-5.32,0-8a20.76,20.76,0,0,1,20.4-20.88c2.33-.1,4.66-.08,7-.15A5.6,5.6,0,0,0,36.16,219.56Zm222,28.33V52.11H59.84V83.43H178.7V96.5h-119v52.67H178.67v13.35H59.85V208H178.69V221.1H59.78v26.79Z"/></g></g></g></svg>