<svg xmlns="http://www.w3.org/2000/svg" viewBox="0 0 300 300"><defs><style>.cls-1{fill:none;}.cls-2{fill:#06205c;}</style></defs><title>iconoSugerencias</title><g id="Capa_2" data-name="Capa 2"><g id="Capa_1-2" data-name="Capa 1"><g id="iconoSugerencias"><path class="cls-1" d="M300,300H0V0H300Z"/><path class="cls-2" d="M250.93,219.6c6.78,16.33,13.1,31.57,20,48.16l-25.19-14.52c-18-10.37-36-20.84-54.1-31a20.05,20.05,0,0,0-9.35-2.51c-49.65-.15-99.3-.09-148.95-.12-13,0-22-6.43-25.05-17.83a26.77,26.77,0,0,1-.76-6.87q-.06-69,0-138c0-14.56,10.21-24.64,24.93-24.64q117.45,0,234.92,0c14.95,0,25.15,10.05,25.17,25q.08,68.75,0,137.49c0,14.68-10.05,24.68-24.75,24.87C262.47,219.66,257.19,219.6,250.93,219.6ZM148,64.73c-34.14,0-68.28,0-102.41-.06-4.48,0-7.38,1.37-8.33,5.94-1.34,6.4,2,10.14,9.18,10.14q101.9,0,203.81,0c6.35,0,9.45-2.79,9.36-8.28s-2.83-7.74-9.2-7.74Q199.18,64.72,148,64.73ZM116,102.6H46.6c-6.12,0-8.07,1.91-8.08,7.87s2,8.15,7.94,8.15H185.29c5.88,0,8.14-2.25,8.16-8s-2.08-8-8-8ZM95.74,157.83q25.22,0,50.44,0c5,0,6.33-1.73,6.4-7.71s-1.52-8.23-6.53-8.23q-50.21,0-100.4,0c-5.15,0-6.33,1.7-6.26,8.35.06,6.27,1.11,7.58,6.4,7.59Q70.77,157.87,95.74,157.83Z"/></g></g></g></svg>