<svg xmlns="http://www.w3.org/2000/svg" viewBox="0 0 300 300"><defs><style>.cls-1{fill:none;}.cls-2{fill:#c8ccd0;}.cls-3{fill:#79bfd1;}.cls-4{fill:#24a5c0;}.cls-5{fill:#adb0b5;}.cls-6{fill:#023a78;fill-rule:evenodd;}.cls-7{fill:#0fa0cc;}.cls-8{fill:#838991;}</style></defs><title>iconoNestle</title><g id="Capa_2" data-name="Capa 2"><g id="Capa_1-2" data-name="Capa 1"><g id="iconoNestle"><rect class="cls-1" width="300" height="300"/><path class="cls-2" d="M49.68,192.44H35.12a.61.61,0,0,1-.52-.31l-7.27-12.6a.61.61,0,0,1,0-.61l7.27-12.6a.6.6,0,0,1,.52-.3H49.68a.6.6,0,0,1,.52.3l7.28,12.6a.61.61,0,0,1,0,.61l-7.28,12.6a.61.61,0,0,1-.52.31"/><path class="cls-3" d="M86.57,159.81H72a.59.59,0,0,1-.52-.29l-7.28-12.61a.61.61,0,0,1,0-.61l7.28-12.61a.6.6,0,0,1,.52-.3H86.57a.6.6,0,0,1,.52.3l7.29,12.61a.66.66,0,0,1,0,.61l-7.29,12.61a.59.59,0,0,1-.52.29"/><path class="cls-2" d="M72.63,184H49a.61.61,0,0,1-.53-.31L36.72,163.22a.56.56,0,0,1,0-.61l11.79-20.43a.61.61,0,0,1,.53-.31H72.63a.63.63,0,0,1,.53.31L85,162.61a.61.61,0,0,1,0,.61l-11.8,20.43a.63.63,0,0,1-.53.31"/><path class="cls-2" d="M30.39,188.69H20.14a.58.58,0,0,1-.51-.29l-5.13-8.88a.57.57,0,0,1,0-.59l5.13-8.88a.59.59,0,0,1,.51-.3H30.39a.61.61,0,0,1,.51.3L36,178.93a.62.62,0,0,1,0,.59L30.9,188.4a.6.6,0,0,1-.51.29"/><path class="cls-2" d="M15.51,169.23H8.89a.57.57,0,0,1-.5-.29L5.08,163.2a.53.53,0,0,1,0-.57l3.31-5.74a.57.57,0,0,1,.5-.29h6.62a.57.57,0,0,1,.5.29l3.31,5.74a.53.53,0,0,1,0,.57L16,168.94a.57.57,0,0,1-.5.29"/><path class="cls-4" d="M73.16,142.18a.63.63,0,0,0-.53-.31H66.77l-2.56,4.43a.66.66,0,0,0,0,.61l7.28,12.6a.6.6,0,0,0,.53.3H83.34Z"/><path class="cls-5" d="M50.2,166.32a.6.6,0,0,0-.52-.3H38.33l10.18,17.63A.61.61,0,0,0,49,184h5.88l2.56-4.43a.61.61,0,0,0,0-.61Z"/><path class="cls-5" d="M31.67,171.39l-4.35,7.53a.66.66,0,0,0,0,.61l4.35,7.53L36,179.52a.62.62,0,0,0,0-.59Z"/><path class="cls-6" d="M253.9,157.16a3,3,0,0,1-3,3h-4.39a3,3,0,0,1-3-3V111.23a3,3,0,0,1,3-3h4.39a3,3,0,0,1,3,3v45.93Z"/><path class="cls-6" d="M259.5,112.45v2.18a1.64,1.64,0,0,0,1.65,1.64h30.3a2.5,2.5,0,0,0,2.5-2.5v-3.7a2.43,2.43,0,0,0-2.51-2.5l-30.23,3a1.88,1.88,0,0,0-1.71,1.9Z"/><path class="cls-6" d="M239,160.14a2.25,2.25,0,0,0,2.26-2.25v-3.34A2.25,2.25,0,0,0,239,152.3h-.61c-3.61,0-5.64-2.28-5.64-5.61v-17h6.68a2.08,2.08,0,0,0,2.08-2.08v-3.08a2.07,2.07,0,0,0-2.08-2.07h-6.68V111.17a2.9,2.9,0,0,0-2.9-2.91h-4.28a2.89,2.89,0,0,0-2.88,2.9v11.3h-2.16a2.07,2.07,0,0,0-2.08,2.07v3.08a2.07,2.07,0,0,0,2.08,2.07h2.16v18.39A11.9,11.9,0,0,0,235,160.14Z"/><path class="cls-6" d="M164.38,121.14c-12.18,0-19,9.53-19,19.58,0,10.71,7.32,20.14,19.1,20.14,8.06,0,16-4.25,17.51-11.23a1.8,1.8,0,0,0-1.75-2.18h-5.76a2.89,2.89,0,0,0-2.42,1.26c-1.65,2.41-4.06,3.7-7.63,3.7A8.8,8.8,0,0,1,155.6,144h24.5c2.25,0,3.26-1.23,3.26-3.31,0-9.8-5.8-19.58-19-19.58Zm0,7.86a8.6,8.6,0,0,1,8.78,7.53H155.67a8.53,8.53,0,0,1,8.71-7.53Z"/><path class="cls-6" d="M276,121.14c-12.19,0-19,9.53-19,19.58,0,10.71,7.32,20.14,19.1,20.14,8.06,0,16-4.25,17.51-11.23a1.8,1.8,0,0,0-1.76-2.18h-5.76a2.88,2.88,0,0,0-2.41,1.26c-1.65,2.41-4.06,3.7-7.63,3.7a8.8,8.8,0,0,1-8.81-8.38h24.5c2.25,0,3.26-1.23,3.26-3.31,0-9.8-5.8-19.58-19-19.58Zm0,7.86a8.6,8.6,0,0,1,8.78,7.53H267.31A8.53,8.53,0,0,1,276,129Z"/><path class="cls-6" d="M214.45,108.77H135.09a3.26,3.26,0,0,0-3.26,3.27l.27,31.17s-17.1-30.89-18-32.47A5.82,5.82,0,0,0,109,107.9h-6.53a3.27,3.27,0,0,0-3.27,3.26v45.71a3.26,3.26,0,0,0,3.25,3.27h4.19a3.27,3.27,0,0,0,3.26-3.27l-.24-32.05s17.26,31.2,18,32.43a5.74,5.74,0,0,0,5.13,2.89h6a3.26,3.26,0,0,0,3.26-3.27V116.52h72.43a2.22,2.22,0,0,0,2.23-2.22V111a2.23,2.23,0,0,0-2.23-2.23Z"/><path class="cls-6" d="M201.6,128.62c3.45,0,6,1.25,7,3.41.45,1,1.31,1.24,2.5,1.24h4.74a1.73,1.73,0,0,0,1.69-1.7c0-5.52-6.58-10.44-15.9-10.44-9.63,0-16,4.59-16,11.9,0,5.6,4.42,8.93,9.86,10.35,2.47.65,6.7,1.69,8.76,2.23,2.22.58,4.21,1.26,4.21,3.16,0,3-3.17,4-6.62,4-3.27,0-6.54-1.46-7.47-3.8-.54-1.35-1.49-1.55-2.93-1.55h-4.82a1.86,1.86,0,0,0-1.81,1.83v.62c0,5.33,7.16,10.93,17,10.93,7,0,16.77-2.92,16.77-12.31,0-5.45-3.65-9.21-9.57-10.72l-9.1-2.31c-2.15-.56-4.17-1.27-4.17-3.12,0-2.8,2.59-3.75,5.82-3.75Z"/><path class="cls-7" d="M98.69,169.22a.32.32,0,0,1,.34-.34h3.33a.32.32,0,0,1,.34.34v9.11a.18.18,0,0,0,.2.2h8.81c.14,0,.2-.06.2-.2v-9.11a.32.32,0,0,1,.35-.34h3.33a.32.32,0,0,1,.34.34v22.44a.33.33,0,0,1-.34.34h-3.33a.33.33,0,0,1-.35-.34v-9.32a.18.18,0,0,0-.2-.2H102.9a.18.18,0,0,0-.2.2v9.32a.32.32,0,0,1-.34.34H99a.32.32,0,0,1-.34-.34Z"/><path class="cls-7" d="M119.29,187.82a12.78,12.78,0,0,1-.58-4,13,13,0,0,1,.55-4c.92-2.86,3.43-4.52,6.7-4.52s5.81,1.73,6.73,4.52a14.8,14.8,0,0,1,.54,4.93.33.33,0,0,1-.37.34h-10.1a.18.18,0,0,0-.2.2,3.49,3.49,0,0,0,.24,1.26,3.56,3.56,0,0,0,3.66,2.48,5,5,0,0,0,3.85-1.56c.17-.17.34-.21.51-.07l2,1.77a.31.31,0,0,1,0,.47,8.63,8.63,0,0,1-6.73,2.79c-3.47,0-5.92-1.7-6.84-4.55m9.9-7.25a3.51,3.51,0,0,0-6.43,0,4.1,4.1,0,0,0-.2,1.4.18.18,0,0,0,.2.2h6.43a.18.18,0,0,0,.2-.2,4.37,4.37,0,0,0-.2-1.4"/><path class="cls-7" d="M145.71,192a.33.33,0,0,1-.34-.34v-1.19h0c-.79,1.12-2.32,1.9-4.63,1.9-3,0-5.51-1.56-5.51-5s2.52-5.21,6.57-5.21h3.33a.18.18,0,0,0,.2-.2v-.78c0-1.87-.88-2.72-3.63-2.72a5.8,5.8,0,0,0-3.75,1.12.3.3,0,0,1-.47-.07l-1.26-2.24a.33.33,0,0,1,.07-.45,9.57,9.57,0,0,1,5.81-1.59c5,0,6.84,1.7,6.84,5.71v10.71a.33.33,0,0,1-.34.34Zm-.41-5.51v-1.26a.18.18,0,0,0-.2-.2h-2.72c-2.45,0-3.54.68-3.54,2.21,0,1.36,1,2,2.83,2,2.34,0,3.63-.92,3.63-2.79"/><path class="cls-7" d="M156.79,192.2c-3.19,0-4.48-1.53-4.48-4.69V169.22a.31.31,0,0,1,.33-.34h3.13a.32.32,0,0,1,.35.34v18.09c0,1.12.44,1.49,1.42,1.49h.75a.33.33,0,0,1,.34.34v2.72a.32.32,0,0,1-.34.34Z"/><path class="cls-7" d="M165.87,192.2c-3.3,0-4.56-1.59-4.56-4.79v-8.64a.18.18,0,0,0-.2-.2H160a.33.33,0,0,1-.34-.34V176a.33.33,0,0,1,.34-.34h1.09a.18.18,0,0,0,.2-.2v-4.49a.33.33,0,0,1,.35-.34h3.12a.32.32,0,0,1,.34.34v4.49a.18.18,0,0,0,.21.2h2.17a.32.32,0,0,1,.34.34v2.28a.32.32,0,0,1-.34.34h-2.17a.18.18,0,0,0-.21.2v8.5c0,1.16.48,1.53,1.53,1.53h.85a.32.32,0,0,1,.34.34v2.72a.32.32,0,0,1-.34.34Z"/><path class="cls-7" d="M181.17,192a.33.33,0,0,1-.34-.34v-9.45c0-2.11-1.05-3.57-3.09-3.57s-3.13,1.46-3.13,3.57v9.45a.33.33,0,0,1-.34.34h-3.13a.33.33,0,0,1-.34-.34V169.22a.32.32,0,0,1,.34-.34h3.13a.32.32,0,0,1,.34.34v7.92h0a5.09,5.09,0,0,1,4.32-1.91c3.5,0,5.68,2.59,5.68,6.09v10.34a.33.33,0,0,1-.34.34Z"/><path class="cls-8" d="M189.67,189.34a.38.38,0,0,1-.07-.51l2.09-2.43a.31.31,0,0,1,.48,0,10.24,10.24,0,0,0,6.24,2.43c2.73,0,4.31-1.39,4.31-3.31,0-1.65-1-2.73-4.18-3.17l-1.21-.17c-4.42-.61-6.92-2.73-6.92-6.54,0-4.15,3-6.92,7.76-6.92a12.55,12.55,0,0,1,7.42,2.3c.17.13.2.26.07.47L204,174a.33.33,0,0,1-.47.1,9.73,9.73,0,0,0-5.5-1.78c-2.33,0-3.61,1.28-3.61,3.07,0,1.58,1.11,2.66,4.22,3.1l1.21.17c4.42.6,6.85,2.7,6.85,6.64,0,4.09-2.94,7.12-8.64,7.12a13,13,0,0,1-8.43-3"/><path class="cls-8" d="M209.23,187.89a16.37,16.37,0,0,1,0-8c1-2.91,3.44-4.49,6.72-4.49a7.09,7.09,0,0,1,5.63,2.53.33.33,0,0,1,0,.47l-2.13,1.86a.31.31,0,0,1-.47-.07,3.7,3.7,0,0,0-3-1.42,3,3,0,0,0-3,2.13,9.52,9.52,0,0,0-.34,3,9.79,9.79,0,0,0,.34,3,3,3,0,0,0,3,2.09,3.7,3.7,0,0,0,3-1.42.3.3,0,0,1,.47,0l2.13,1.85a.34.34,0,0,1,0,.48,7.19,7.19,0,0,1-5.63,2.49c-3.28,0-5.77-1.58-6.72-4.48"/><path class="cls-8" d="M224.61,172.67a.31.31,0,0,1-.33-.34V169.4a.32.32,0,0,1,.33-.34h3.11a.33.33,0,0,1,.34.34v2.93a.32.32,0,0,1-.34.34Zm0,19.33a.31.31,0,0,1-.33-.34V176.08a.32.32,0,0,1,.33-.34h3.11a.33.33,0,0,1,.34.34v15.58a.32.32,0,0,1-.34.34Z"/><path class="cls-8" d="M231.33,187.85a12.46,12.46,0,0,1-.58-4,13.1,13.1,0,0,1,.54-4c.92-2.84,3.41-4.49,6.65-4.49s5.77,1.72,6.68,4.49a14.56,14.56,0,0,1,.54,4.89.33.33,0,0,1-.37.33h-10c-.14,0-.2.07-.2.21a3.65,3.65,0,0,0,.23,1.24,3.55,3.55,0,0,0,3.64,2.47,4.93,4.93,0,0,0,3.82-1.55c.17-.17.34-.21.5-.07l2,1.75a.31.31,0,0,1,0,.48,8.58,8.58,0,0,1-6.68,2.76c-3.44,0-5.87-1.68-6.78-4.52m9.81-7.18a3.47,3.47,0,0,0-6.37,0,4,4,0,0,0-.2,1.38.18.18,0,0,0,.2.2h6.37a.18.18,0,0,0,.21-.2,4,4,0,0,0-.21-1.38"/><path class="cls-8" d="M258.15,192a.32.32,0,0,1-.34-.34v-9.38c0-2.09-1.05-3.54-3.07-3.54s-3.11,1.45-3.11,3.54v9.38a.31.31,0,0,1-.33.34h-3.11a.32.32,0,0,1-.34-.34V176.08a.33.33,0,0,1,.34-.34h3.11a.32.32,0,0,1,.33.34v1.18h0a5,5,0,0,1,4.28-1.89c3.48,0,5.64,2.56,5.64,6v10.25a.32.32,0,0,1-.34.34Z"/><path class="cls-8" d="M264.62,187.89a16.06,16.06,0,0,1,0-8c.94-2.91,3.44-4.49,6.71-4.49A7.1,7.1,0,0,1,277,177.9a.33.33,0,0,1,0,.47l-2.13,1.86a.31.31,0,0,1-.47-.07,3.7,3.7,0,0,0-3-1.42,3,3,0,0,0-3,2.13,9.52,9.52,0,0,0-.34,3,9.79,9.79,0,0,0,.34,3,3,3,0,0,0,3,2.09,3.7,3.7,0,0,0,3-1.42.3.3,0,0,1,.47,0l2.13,1.85a.34.34,0,0,1,0,.48,7.19,7.19,0,0,1-5.64,2.49c-3.27,0-5.77-1.58-6.71-4.48"/><path class="cls-8" d="M279.36,187.85a14.65,14.65,0,0,1,0-8c.91-2.84,3.41-4.49,6.64-4.49s5.77,1.72,6.68,4.49a14.56,14.56,0,0,1,.54,4.89c0,.2-.13.33-.37.33h-10a.18.18,0,0,0-.2.21,3.42,3.42,0,0,0,.24,1.24,3.55,3.55,0,0,0,3.64,2.47,4.92,4.92,0,0,0,3.81-1.55c.17-.17.34-.21.51-.07l2,1.75a.31.31,0,0,1,0,.48,8.55,8.55,0,0,1-6.68,2.76c-3.44,0-5.87-1.68-6.78-4.52m9.82-7.18a3.47,3.47,0,0,0-6.38,0,4.24,4.24,0,0,0-.2,1.38.18.18,0,0,0,.2.2h6.38a.18.18,0,0,0,.2-.2,4.24,4.24,0,0,0-.2-1.38"/></g></g></g></svg>