<svg xmlns="http://www.w3.org/2000/svg" viewBox="0 0 300 300"><defs><style>.cls-1{fill:none;}.cls-2{fill:#06205c;}</style></defs><title>iconoSolicitudRepresentante</title><g id="Capa_2" data-name="Capa 2"><g id="Capa_1-2" data-name="Capa 1"><g id="iconoSolicitudRepresentante"><path class="cls-1" d="M0,0H300V300H0Z"/><path class="cls-2" d="M198.53,202.93c-11.91-3.06-23.28-6.18-34.75-8.85-7.19-1.68-12.1-5.27-13.27-13.52-10,5.5-18.44,13.09-30.07,13.08s-20-7.16-30-13C89,192.05,80,193.23,71.55,195.32c-9.48,2.37-18.91,4.93-28.36,7.4,3.28-35.51-1.75-70.81-2.56-106.21-.53-23,2.3-45.71,18.17-64.11,16.11-18.69,37-24.85,61.19-21a58.45,58.45,0,0,0,12.74.66c32.11-2,57.49,17.15,66.13,50.22,5.23,20,4.07,40.05,1,60.21a299.67,299.67,0,0,0-1.34,78.87C198.57,201.77,198.53,202.24,198.53,202.93ZM172,157.74l-.43-1H153.22c-6.16,0-12.33-.18-18.48.12a9.46,9.46,0,0,0-5.26,2.45c-2.17,1.94-15.91,2.79-18,.72a4.61,4.61,0,0,1-.82-1.24c-3.41-6.45-.05-12.32,7-12.32,2.67,0,5.33-.09,8,0,1.09.05,2.87.29,3.11.92,1.63,4.28,5.16,3.33,8.35,3.34,7.17,0,14.34-.2,21.49.09,3.46.15,5.35-1.08,6.2-4.24,1.72-6.39,4.08-12.69,5-19.19,2.06-14.78-3.07-22.35-17.33-27a96.11,96.11,0,0,0-9.58-2.75c-18.66-4-36-10.38-49.6-24.73-4.75-5-8.71-3.78-11.13,2.83-2,5.6-3.43,11.42-5.22,17.11a56.27,56.27,0,0,1-2.67,5.78,72.37,72.37,0,0,0-4-6.23,38.14,38.14,0,0,0-4-3.8c-.73,1.74-2.11,3.49-2.08,5.22a154.75,154.75,0,0,0,1.21,20.33c1.22,8.15.69,17.14,8.42,23a4,4,0,0,1,.94,2.27c4.2,21.15,19.09,33,37,42.18,6.13,3.15,12.39,3.15,18.07-.52,7.65-4.93,15.36-10,22.12-16,4.11-3.65,7.65-6.19,13.34-5.58C167.41,159.86,169.75,158.41,172,157.74Z"/><path class="cls-2" d="M177.55,204C187,207.09,196,210,205,213.06c12.89,4.34,21.44,13.29,24.13,26.31,3.66,17.63,5.91,35.55,8.85,53.93H2.78C5.72,275,7.92,256.85,11.7,239.09c2.7-12.72,11.12-21.69,23.88-25.94,9.13-3.05,18.26-6.07,27.63-9.19,8.53,29,27,46.63,57.5,46.47C150.68,250.27,169.06,233,177.55,204Z"/><path class="cls-2" d="M227,141.47c1.09-6.26,1.93-11.06,2.9-16.61-3.52,0-6.63-.1-9.72,0s-4.55-1.08-4.53-4.34q.12-22.9,0-45.81c0-3.29,1.35-4.3,4.49-4.29q36,.1,72,0c3.54,0,4.62,1.47,4.6,4.77-.08,14.94-.11,29.88,0,44.82,0,3.76-1.58,4.9-5.1,4.87-13.82-.09-27.65.08-41.47-.1-3.63,0-6.29.82-8.64,3.72A125.57,125.57,0,0,1,232,138.69C231,139.66,229.51,140.11,227,141.47Zm54.12-58.59H231.09c-.81,3.17-.45,4.88,3.3,4.85q21.71-.2,43.41,0C281.26,87.75,282.34,86.48,281.16,82.88ZM231.24,100c16,0,31.78.05,47.57-.1.95,0,1.89-1.55,2.83-2.37-1.13-.84-2.26-2.39-3.41-2.4-14.65-.16-29.31-.06-44-.14C231,94.93,230.17,96.39,231.24,100ZM231,112.41h25.08c-.09-1.72-.17-3.11-.24-4.63H231Z"/></g></g></g></svg>