<svg xmlns="http://www.w3.org/2000/svg" viewBox="0 0 300 300"><defs><style>.cls-1{fill:none;}.cls-2{fill:#06205c;}</style></defs><title>iconoInteracciones</title><g id="Capa_2" data-name="Capa 2"><g id="Capa_1-2" data-name="Capa 1"><g id="iconoInteracciones"><path class="cls-1" d="M300,300H0V0H300Z"/><path class="cls-2" d="M117.29,150.58c0,30.87-24.51,55-55.69,55-30.78,0-55.65-24.86-55.49-55.4a55.59,55.59,0,0,1,111.18.38Z"/><path class="cls-2" d="M182.74,150.29c0-30.54,24.92-55.32,55.69-55.3a55.48,55.48,0,0,1,55.46,55.51c0,30.72-24.65,55.11-55.67,55.1A55,55,0,0,1,182.74,150.29Zm55.41,33.32a33.16,33.16,0,1,0,.34-66.31c-18.39-.07-33.52,14.76-33.59,32.94A33.49,33.49,0,0,0,238.15,183.61Z"/><path class="cls-2" d="M244.2,35.62c-3,16.3-5.78,31.58-8.72,47.63l-44.6-19,13.26-7.4c-19.65-16.58-41.55-23.65-66.39-19.78S94,54.61,79.76,75.36c-6.26-4.06-12.23-7.91-18.52-12a104.79,104.79,0,0,1,22.07-25c41.08-34.12,98-32.38,138.34,4.38,2.76,2.51,4.63,2.71,7.62.92C233.81,41,238.58,38.62,244.2,35.62Z"/><path class="cls-2" d="M66.75,220.3l44.55,19-14,7.78c24.31,24.2,80.27,34,118.82-12.55l17.26,13.29A97.81,97.81,0,0,1,211,269.75c-40.73,29.13-93.66,26.13-131-7.54-3.21-2.89-5.57-3.7-9.32-1.13s-7.82,4.28-12.64,6.85C61,251.56,63.86,236.09,66.75,220.3Z"/></g></g></g></svg>