<svg xmlns="http://www.w3.org/2000/svg" viewBox="0 0 300 300"><defs><style>.cls-1{fill:#fff;}.cls-2{fill:#06205c;}</style></defs><title>iconoAviso</title><g id="Capa_2" data-name="Capa 2"><g id="Capa_1-2" data-name="Capa 1"><g id="iconoAviso"><path class="cls-1" d="M300,300H0V0H300Z"/><path class="cls-2" d="M149.9,274.08c-31.82,0-63.64.07-95.45,0C20,274-3.37,239.51,9.41,207.61A63.37,63.37,0,0,1,15,197.68q46.56-74,93.17-148c19.53-31.17,63.06-32,82.78-1q47.64,74.78,94.64,150c20.84,33.14.29,67.08-27.92,73.86a56.11,56.11,0,0,1-12.84,1.5C213.21,274.14,181.55,274.08,149.9,274.08Zm-.14-25.83q47.48,0,94.94,0c12.25,0,21.69-8,23.33-19.61,1-6.88-2.19-12.61-5.66-18.13q-46.06-73.11-92.22-146.17c-10.67-16.89-29.71-16.89-40.36,0Q83.14,138.23,36.47,212.14c-5.1,8-6.29,16-1.71,24.38s12.09,11.79,21.55,11.76C87.46,248.19,118.61,248.25,149.76,248.25Z"/><path class="cls-2" d="M162,207.84H141.46q-1.07-14.86-2.13-29.63c-1.56-22.35-3.19-44.69-4.57-67.05a15.57,15.57,0,0,1,1.73-7.92c4.79-8.9,10-17.59,15.42-27.07,5.9,10.17,11.5,19.72,17,29.36.59,1,.46,2.6.38,3.89q-3.13,47.45-6.38,94.87A21.28,21.28,0,0,1,162,207.84Z"/><path class="cls-2" d="M141.6,238.57V218.4h20.82c0,6.1.1,12.16-.12,18.2,0,.69-1.79,1.85-2.77,1.88C153.73,238.66,147.91,238.57,141.6,238.57Z"/></g></g></g></svg>