<svg xmlns="http://www.w3.org/2000/svg" viewBox="0 0 300 300"><defs><style>.cls-1{fill:none;}.cls-2{fill:#023a78;fill-rule:evenodd;}.cls-3{fill:#0fa0cc;}.cls-4{fill:#838991;}</style></defs><title>iconoTextNestle</title><g id="Capa_2" data-name="Capa 2"><g id="Capa_1-2" data-name="Capa 1"><g id="iconoTextNestle"><rect class="cls-1" width="300" height="300"/><g id="logoHeaderNestle"><path class="cls-2" d="M227.32,159.75a4,4,0,0,1-4,4h-6a4,4,0,0,1-4-4V97.52a4,4,0,0,1,4-4h6a4,4,0,0,1,4,4v62.24Z"/><path class="cls-2" d="M234.9,99.17v3a2.22,2.22,0,0,0,2.23,2.21h41.05a3.39,3.39,0,0,0,3.4-3.38v-5a3.28,3.28,0,0,0-3.4-3.38s-39.69,3.89-41,4a2.55,2.55,0,0,0-2.31,2.58Z"/><path class="cls-2" d="M207.12,163.79a3,3,0,0,0,3.06-3.06v-4.52a3.05,3.05,0,0,0-3.06-3.06h-.82c-4.9,0-7.65-3.08-7.65-7.61v-23h9.06a2.82,2.82,0,0,0,2.82-2.82v-4.16a2.83,2.83,0,0,0-2.83-2.82h-9V97.43a3.93,3.93,0,0,0-3.92-3.94h-5.8A3.91,3.91,0,0,0,185,97.41v15.31H182.1a2.82,2.82,0,0,0-2.83,2.81v4.17a2.81,2.81,0,0,0,2.82,2.81H185v24.91a16.13,16.13,0,0,0,16.65,16.37Z"/><path class="cls-2" d="M106,110.93c-16.51,0-25.77,12.92-25.77,26.54,0,14.51,9.91,27.28,25.88,27.28,10.92,0,21.68-5.75,23.72-15.2a2.44,2.44,0,0,0-2.38-3h-7.8a3.89,3.89,0,0,0-3.28,1.71c-2.23,3.27-5.5,5-10.34,5A11.94,11.94,0,0,1,94.11,142h33.2c3.06,0,4.42-1.66,4.42-4.48,0-13.28-7.86-26.54-25.71-26.54Zm0,10.65c6.09,0,11.35,4.34,11.89,10.21H94.22c.53-5.87,5.7-10.2,11.8-10.21Z"/><path class="cls-2" d="M257.28,110.93c-16.51,0-25.77,12.92-25.77,26.54,0,14.51,9.92,27.28,25.88,27.28,10.92,0,21.69-5.75,23.73-15.2a2.45,2.45,0,0,0-2.38-3h-7.81a3.89,3.89,0,0,0-3.27,1.71c-2.24,3.27-5.51,5-10.34,5A11.94,11.94,0,0,1,245.38,142h33.2c3.05,0,4.42-1.66,4.42-4.48,0-13.28-7.86-26.54-25.72-26.54Zm0,10.65c6.09,0,11.36,4.34,11.89,10.21H245.48c.53-5.87,5.71-10.2,11.8-10.21Z"/><path class="cls-2" d="M173.85,94.18H66.32a4.42,4.42,0,0,0-4.42,4.43l.37,42.23S39.1,99,37.89,96.85A7.87,7.87,0,0,0,30.94,93H22.1a4.45,4.45,0,0,0-4.44,4.43v61.93a4.42,4.42,0,0,0,4.41,4.43h5.68a4.43,4.43,0,0,0,4.42-4.44l-.34-43.41s23.4,42.27,24.4,43.94a7.8,7.8,0,0,0,7,3.91H71.3a4.42,4.42,0,0,0,4.42-4.43V104.68h98.13a3,3,0,0,0,3-3V97.2a3,3,0,0,0-3-3Z"/><path class="cls-2" d="M156.45,121.07c4.67,0,8.17,1.7,9.43,4.63.6,1.4,1.77,1.68,3.38,1.68h6.43a2.34,2.34,0,0,0,2.28-2.31c0-7.48-8.9-14.14-21.53-14.14-13.06,0-21.63,6.22-21.63,16.12,0,7.58,6,12.1,13.35,14,3.36.88,9.09,2.3,11.88,3,3,.79,5.7,1.71,5.7,4.28,0,4.07-4.29,5.46-9,5.46-4.44,0-8.86-2-10.12-5.15-.74-1.83-2-2.1-4-2.1h-6.54a2.51,2.51,0,0,0-2.45,2.47v.84c0,7.23,9.71,14.81,23.09,14.81,9.5,0,22.72-4,22.72-16.68,0-7.37-4.93-12.47-13-14.51l-12.33-3.14c-2.92-.76-5.65-1.72-5.65-4.22,0-3.8,3.51-5.09,7.89-5.09Z"/><path class="cls-3" d="M17,176.08a.44.44,0,0,1,.46-.46H22a.44.44,0,0,1,.46.46v12.35a.23.23,0,0,0,.27.27H34.65a.23.23,0,0,0,.27-.27V176.08a.44.44,0,0,1,.46-.46H39.9a.44.44,0,0,1,.46.46v30.41a.44.44,0,0,1-.46.46H35.38a.44.44,0,0,1-.46-.46V193.87c0-.19-.09-.28-.27-.28H22.71c-.18,0-.27.09-.27.28v12.62A.44.44,0,0,1,22,207H17.46a.43.43,0,0,1-.46-.46Z"/><path class="cls-3" d="M44.92,201.28a17.18,17.18,0,0,1-.78-5.43,17.77,17.77,0,0,1,.73-5.49c1.25-3.87,4.66-6.12,9.08-6.12s7.88,2.35,9.12,6.12c.51,1.57.74,3.09.74,6.69a.46.46,0,0,1-.51.46H49.62c-.19,0-.28.09-.28.27a4.78,4.78,0,0,0,.33,1.71,4.84,4.84,0,0,0,5,3.36,6.66,6.66,0,0,0,5.2-2.12c.24-.23.47-.28.7-.09L63.26,203a.43.43,0,0,1,0,.65,11.71,11.71,0,0,1-9.12,3.78c-4.7,0-8-2.31-9.26-6.18m13.41-9.81A4.31,4.31,0,0,0,54,188.61a4.33,4.33,0,0,0-4.38,2.86,5.5,5.5,0,0,0-.28,1.89c0,.18.09.27.28.27h8.71a.24.24,0,0,0,.27-.27,5.77,5.77,0,0,0-.27-1.89"/><path class="cls-3" d="M80.71,207a.44.44,0,0,1-.46-.46v-1.61h0c-1.06,1.52-3.14,2.58-6.27,2.58-4,0-7.46-2.12-7.46-6.77,0-4.84,3.41-7.05,8.89-7.05h4.52a.25.25,0,0,0,.27-.28V192.3c0-2.53-1.19-3.68-4.93-3.68a7.75,7.75,0,0,0-5.07,1.52.41.41,0,0,1-.64-.1l-1.7-3a.42.42,0,0,1,.09-.6,13,13,0,0,1,7.88-2.16c6.77,0,9.26,2.3,9.26,7.74v14.51a.44.44,0,0,1-.46.46Zm-.55-7.46v-1.71a.24.24,0,0,0-.27-.27H76.2c-3.32,0-4.79.92-4.79,3,0,1.84,1.34,2.77,3.82,2.77,3.18,0,4.93-1.25,4.93-3.78"/><path class="cls-3" d="M95.73,207.23c-4.33,0-6.08-2.08-6.08-6.36V176.08a.44.44,0,0,1,.46-.46h4.24a.44.44,0,0,1,.46.46v24.51c0,1.52.6,2,1.94,2h1a.44.44,0,0,1,.46.46v3.69a.44.44,0,0,1-.46.46Z"/><path class="cls-3" d="M108,207.23c-4.46,0-6.17-2.17-6.17-6.5V189a.25.25,0,0,0-.28-.28h-1.47a.43.43,0,0,1-.46-.46v-3.08a.44.44,0,0,1,.46-.47h1.47c.19,0,.28-.09.28-.27v-6.08a.44.44,0,0,1,.46-.47h4.24a.44.44,0,0,1,.46.47v6.08c0,.18.09.27.28.27h2.94a.44.44,0,0,1,.46.47v3.08a.43.43,0,0,1-.46.46H107.3a.25.25,0,0,0-.28.28v11.52c0,1.56.64,2.07,2.07,2.07h1.15a.43.43,0,0,1,.46.46v3.69a.44.44,0,0,1-.46.46Z"/><path class="cls-3" d="M128.77,207a.44.44,0,0,1-.47-.46V193.68c0-2.85-1.43-4.83-4.19-4.83s-4.24,2-4.24,4.83v12.81a.43.43,0,0,1-.46.46h-4.24a.44.44,0,0,1-.46-.46V176.08a.44.44,0,0,1,.46-.46h4.24a.44.44,0,0,1,.46.46v10.74h0c1-1.39,2.9-2.59,5.85-2.59,4.75,0,7.69,3.51,7.69,8.25v14a.43.43,0,0,1-.46.46Z"/><path class="cls-4" d="M140.28,203.34a.49.49,0,0,1-.09-.69l2.83-3.29a.41.41,0,0,1,.64,0,13.89,13.89,0,0,0,8.46,3.29c3.7,0,5.85-1.87,5.85-4.48,0-2.24-1.37-3.7-5.67-4.3l-1.65-.22c-6-.83-9.37-3.71-9.37-8.87,0-5.62,4.12-9.37,10.52-9.37a17,17,0,0,1,10,3.11.42.42,0,0,1,.1.64l-2.2,3.38a.46.46,0,0,1-.64.14,13.1,13.1,0,0,0-7.45-2.43c-3.15,0-4.89,1.74-4.89,4.16,0,2.15,1.51,3.61,5.71,4.21l1.65.23c6,.82,9.28,3.65,9.28,9,0,5.53-4,9.65-11.71,9.65a17.48,17.48,0,0,1-11.42-4.12"/><path class="cls-4" d="M166.79,201.38a21.79,21.79,0,0,1,0-10.88c1.28-3.94,4.66-6.08,9.09-6.08a9.59,9.59,0,0,1,7.64,3.43.45.45,0,0,1-.05.64L180.59,191a.42.42,0,0,1-.64-.09,5,5,0,0,0-4.07-1.92,4,4,0,0,0-4.11,2.88,12.8,12.8,0,0,0-.46,4.07,13.07,13.07,0,0,0,.46,4.11,4.06,4.06,0,0,0,4.11,2.83A5,5,0,0,0,180,201a.42.42,0,0,1,.64,0l2.88,2.51c.23.19.18.41.05.64a9.72,9.72,0,0,1-7.64,3.39c-4.43,0-7.81-2.15-9.09-6.08"/><path class="cls-4" d="M187.63,180.76a.44.44,0,0,1-.46-.46v-4a.44.44,0,0,1,.46-.46h4.2a.43.43,0,0,1,.46.46v4a.43.43,0,0,1-.46.46Zm0,26.19a.43.43,0,0,1-.46-.45V185.38a.44.44,0,0,1,.46-.46h4.2a.43.43,0,0,1,.46.46V206.5a.43.43,0,0,1-.46.45Z"/><path class="cls-4" d="M196.73,201.33a17,17,0,0,1-.78-5.39,17.42,17.42,0,0,1,.73-5.44c1.24-3.84,4.62-6.08,9-6.08s7.81,2.33,9.05,6.08a19.77,19.77,0,0,1,.73,6.62.45.45,0,0,1-.51.46H201.39a.24.24,0,0,0-.28.28,4.89,4.89,0,0,0,.32,1.69,4.82,4.82,0,0,0,4.94,3.33,6.61,6.61,0,0,0,5.16-2.1.47.47,0,0,1,.69-.09l2.7,2.38a.4.4,0,0,1,0,.64,11.62,11.62,0,0,1-9.05,3.75c-4.66,0-7.95-2.29-9.18-6.13m13.3-9.74a4.71,4.71,0,0,0-8.64,0,5.44,5.44,0,0,0-.28,1.88c0,.18.09.27.28.27H210a.24.24,0,0,0,.27-.27,5.71,5.71,0,0,0-.27-1.88"/><path class="cls-4" d="M233.06,207a.43.43,0,0,1-.45-.45V193.79c0-2.84-1.42-4.8-4.17-4.8s-4.2,2-4.2,4.8V206.5a.43.43,0,0,1-.45.45h-4.21a.43.43,0,0,1-.46-.45V185.38a.44.44,0,0,1,.46-.46h4.21a.43.43,0,0,1,.45.46V187h0a6.81,6.81,0,0,1,5.8-2.56c4.71,0,7.63,3.47,7.63,8.18v13.9a.43.43,0,0,1-.45.45Z"/><path class="cls-4" d="M241.84,201.38a21.79,21.79,0,0,1,0-10.88c1.28-3.94,4.66-6.08,9.09-6.08a9.58,9.58,0,0,1,7.64,3.43.44.44,0,0,1-.05.64L255.64,191a.42.42,0,0,1-.64-.09,5,5,0,0,0-4.07-1.92,4,4,0,0,0-4.11,2.88,12.8,12.8,0,0,0-.46,4.07,13.07,13.07,0,0,0,.46,4.11,4.06,4.06,0,0,0,4.11,2.83A5,5,0,0,0,255,201a.42.42,0,0,1,.64,0l2.88,2.51c.23.19.19.41.05.64a9.71,9.71,0,0,1-7.64,3.39c-4.43,0-7.81-2.15-9.09-6.08"/><path class="cls-4" d="M261.81,201.33a17.3,17.3,0,0,1-.78-5.39,17.72,17.72,0,0,1,.73-5.44c1.24-3.84,4.62-6.08,9-6.08s7.82,2.33,9.05,6.08a19.77,19.77,0,0,1,.73,6.62.44.44,0,0,1-.5.46H266.47c-.18,0-.27.09-.27.28a4.89,4.89,0,0,0,.32,1.69,4.8,4.8,0,0,0,4.93,3.33,6.65,6.65,0,0,0,5.17-2.1c.23-.23.46-.27.68-.09l2.71,2.38a.4.4,0,0,1,0,.64,11.63,11.63,0,0,1-9.05,3.75c-4.66,0-8-2.29-9.19-6.13m13.3-9.74a4.71,4.71,0,0,0-8.64,0,5.71,5.71,0,0,0-.27,1.88.24.24,0,0,0,.27.27h8.64c.19,0,.28-.09.28-.27a5.44,5.44,0,0,0-.28-1.88"/></g></g></g></g></svg>