<svg xmlns="http://www.w3.org/2000/svg" viewBox="0 0 300 300"><defs><style>.cls-1{fill:none;}.cls-2{fill:#06205c;}</style></defs><title>iconoMedicamentoMedicamento</title><g id="Capa_2" data-name="Capa 2"><g id="Capa_1-2" data-name="Capa 1"><g id="iconoMedicamentoMedicamento"><path class="cls-1" d="M300,300H0V0H300Z"/><path class="cls-2" d="M41.7,209a31.23,31.23,0,0,1-29-19.21c-5-11.95-2.86-25.91,6.64-34.61C39.94,136.33,60.73,117.59,82,99.44c13-11.09,33.13-8.41,43.9,4.68a31.83,31.83,0,0,1-3.45,44.11q-29.24,26.13-58.52,52.21C57.58,206.11,50.31,209.28,41.7,209Zm42.58-34.62L50.19,135c-9.6,8.73-19.33,16.59-27.84,25.61-9,9.49-8,24.54,1,34,9.2,9.77,24,11.38,34.36,3C66.77,190.46,75.21,182.42,84.28,174.41Z"/><path class="cls-2" d="M230.39,52.6c-2.51,13.82-4.79,26.37-7.23,39.78l-37.4-16,10.48-5.92c-21-21.77-71.57-30.24-103.85,15.12L77.1,75.76C103.21,34,160.51,19.23,204.1,51.9A9,9,0,0,1,206,53.46c5.75,7.75,12.13,7.35,19.1,1.7C226.36,54.17,228,53.73,230.39,52.6Z"/><path class="cls-2" d="M74.5,246.72c2.36-13,4.67-25.65,7.1-39l37.34,15.92-12.12,6.89c15.48,13,32.9,18.61,52.54,16.35,19.44-2.24,35-12,47.4-27.34l14.65,11.35c-10.75,14.06-23.95,24.24-40.18,29.79-32.89,11.25-62.6,5-88.69-17.92-2.6-2.28-4.36-2.76-7.24-.92-3.07,1.95-6.44,3.42-9.68,5.09C75.5,247,75.3,246.9,74.5,246.72Z"/><path class="cls-2" d="M259.12,95c17.6,0,31.2,13.73,31.16,31.44a31.17,31.17,0,0,1-31,31.27,31.52,31.52,0,0,1-31.55-31.39A31,31,0,0,1,259.12,95Zm19.11,13.71a25.63,25.63,0,0,0-35.9-2.83c-10.38,8.44-12.8,23.92-5,34.32Zm-37.88,35.54c9.15,10.35,25.19,11.24,35.72,2.22,10.26-8.78,12.65-24.3,4.93-33.56Z"/><path class="cls-2" d="M237.37,192.85,191.1,159.51c8.66-11.34,25.69-13.64,37.9-5.43C241.55,162.54,245.32,179.25,237.37,192.85Z"/><path class="cls-2" d="M188.28,163.5l45.88,33.06c-8,11.39-25.54,13.7-37.8,5.34C183.94,193.43,180,176,188.28,163.5Z"/><path class="cls-2" d="M23.35,173.94c2.49-15.45,17.07-20.2,25.45-31.14l5.4,6.1Z"/></g></g></g></svg>