<svg xmlns="http://www.w3.org/2000/svg" viewBox="0 0 300 300"><defs><style>.cls-1{fill:none;}.cls-2{fill:#06205c;}</style></defs><title>iconoAbstracts</title><g id="Capa_2" data-name="Capa 2"><g id="Capa_1-2" data-name="Capa 1"><g id="iconoAbstracts"><path class="cls-1" d="M0,0H300V300H0Z"/><path class="cls-2" d="M259.61,288.46c-1.88.08-3.51.22-5.14.22q-103.72,0-207.45.11c-4.6,0-5.82-1.23-5.81-5.82q.2-133.47,0-266.94c0-4.58,1.2-5.84,5.81-5.82q62.49.25,125,0c3.25,0,5.4.82,7.53,3.53,25.84,32.87,51.87,65.59,77.73,98.44a11.62,11.62,0,0,1,2.53,6.64q.21,82.74.1,165.46C259.88,285.61,259.72,286.9,259.61,288.46ZM63.69,34V264.82h174a25.12,25.12,0,0,0,.29-2.62q0-74.25.1-148.5c0-3.22-1.63-3.86-4-4.47q-20.32-5.12-40.63-10.34c-11.72-3-23.43-6-35.34-9.11C162.34,71,166.52,52.7,170.8,34ZM213,87.68l.61-.87L181,49.45c-2.31,10.12-4.35,19.08-6.46,28.36Z"/><path class="cls-2" d="M144.18,230.11c17.5,0,35,0,52.49,0,2.13,0,4.86-.27,6.27.87,2.35,1.91,4.93,4.66,5.46,7.42.71,3.66-2,6.6-5.82,7.55a26.62,26.62,0,0,1-6.43.68q-52.47.06-105,0c-1,0-2,.05-3,0-5.88-.53-9.21-3.68-9.08-8.53s3.64-7.94,9.59-8C107.2,230.05,125.69,230.11,144.18,230.11Z"/><path class="cls-2" d="M144,168.29H91.53a37,37,0,0,1-5.48-.25c-4.42-.67-7.2-4-6.92-8.31.3-4.51,3.05-6.8,7.28-7.55a17.51,17.51,0,0,1,3-.06h109c.67,0,1.34,0,2,0,4.62.29,8.07,3.52,8.3,7.74s-3,7.84-7.68,8.23c-3.81.32-7.65.19-11.48.19Q166.75,168.31,144,168.29Z"/><path class="cls-2" d="M143.49,207.29c-17.82,0-35.64,0-53.47,0-2.13,0-4.47,0-6.35-.84a7.31,7.31,0,0,1-4.45-8.6c.81-4.09,3.71-6.33,7.73-6.61,4.31-.29,8.66-.09,13-.09q48.72,0,97.44,0a18.88,18.88,0,0,1,6.33.9,7.15,7.15,0,0,1,4.84,7.89,7.47,7.47,0,0,1-6.61,7.1,29.42,29.42,0,0,1-5,.25Z"/><path class="cls-2" d="M95.2,47.06h16.1V60.87h14v16H111.41V90.63H95.56V77.05H81.42V61.15H95.2Z"/><path class="cls-2" d="M110.32,129c-7.5,0-15,.06-22.48,0-5.28-.06-8.56-3-8.73-7.56-.17-4.8,3.17-8.36,8.48-8.4q22.72-.2,45.46,0c5.26,0,8.82,3.77,8.61,8.39-.21,4.37-3.78,7.52-8.86,7.57C125.31,129.08,117.81,129,110.32,129Z"/></g></g></g></svg>