<svg xmlns="http://www.w3.org/2000/svg" viewBox="0 0 300 300"><defs><style>.cls-1{fill:none;}.cls-2{fill:#06205c;}</style></defs><title>iconoMedicamentoAlimento</title><g id="Capa_2" data-name="Capa 2"><g id="Capa_1-2" data-name="Capa 1"><g id="iconoMedicamentoAlimento"><path class="cls-1" d="M300,300H0V0H300Z"/><path class="cls-2" d="M36.61,207.27A32.82,32.82,0,0,1,6.42,186.44c-5-12.64-2.12-27.22,7.91-36.29,21.22-19.21,42.55-38.3,64.17-57.06,13.68-11.87,34.06-9.91,46.22,3.73,11.69,13.12,10.95,34-2.24,46-21.06,19.14-42.42,38-63.77,56.77A31.08,31.08,0,0,1,36.61,207.27ZM46,129.82c-9.92,8.94-19.73,17-28.55,25.93C8,165.39,8.27,181,17,191.27s24.09,13.29,35.05,5.26c10.37-7.61,19.64-16.74,29.7-25.46Z"/><path class="cls-2" d="M87.17,78.89,69.83,67.61c10-15.3,22.66-27.22,38.66-35.43C146,13,188.86,19,220,47.8c2.76,2.55,4.71,3.27,8,1.11,4-2.61,8.38-4.59,13.55-7.36-2.76,15.28-5.34,29.59-8.09,44.83L191.56,68.47l12-6.62C177.15,35.41,120.87,30.36,87.17,78.89Z"/><path class="cls-2" d="M66.91,260.3c2.55-14.31,5-27.85,7.41-41.39a19.56,19.56,0,0,1,1.05-3c1.1.35,2,.57,2.92.95l38.63,16.51-13.14,7.25c23.14,23,75.12,32,111.43-11.81l16.34,12.6A97.58,97.58,0,0,1,196,270.81,96.52,96.52,0,0,1,86.66,254.17c-2.42-2.28-4.14-2.45-6.83-.83C75.87,255.73,71.69,257.75,66.91,260.3Z"/><path class="cls-2" d="M208.52,82.18l23.78,42.58c4.14,7.41,8.52,14.7,12.33,22.27,2,3.87,2.83,8.28,4.34,12.39a26.06,26.06,0,0,0,2.46,4.82Q265.13,186,278.9,207.7c3,4.65,3.2,9.6,2.36,15.14-5.2.23-9.5-1.19-12-5.72-7.1-13-14-26-20.93-39.08-1.63-3.08-2.72-6.49-4.6-9.39-1.41-2.18-3.71-3.78-5.59-5.65a20.62,20.62,0,0,1-3-3.16c-10.92-17.31-21.85-34.61-32.63-52C196.17,97.55,198.5,87.44,208.52,82.18Z"/><path class="cls-2" d="M273.26,83.81c-.19,1.52.05,3.29-.64,4.54-5.54,10.05-11.31,20-16.87,30-.66,1.2-.53,2.83-.77,4.26,1.15-.88,2.68-1.53,3.38-2.68,6-10,11.92-20,17.83-30.06,1.26-2.13,2.42-4.43,5.22-1l-18.18,31.41a16.61,16.61,0,0,0-1.68,3.05,7.45,7.45,0,0,0,.13,2.6c.94-.31,2.09-.38,2.75-1a12.3,12.3,0,0,0,1.82-3q8.19-14,16.4-28c.77-1.3,1.71-2.51,2.57-3.77l1.53.71a26.1,26.1,0,0,1-1.38,3.87C280,105,274.55,115.11,269,125.18c-1.37,2.49-1.73,4.29,2.09,5.16q10-18,20.13-36l1.54-.16c.19,1.42,1,3.15.46,4.22-5.86,11.76-10.95,24.09-18.33,34.84-4.25,6.2-12.08,10.13-18.74,14.39-3,1.93-8.55-2.3-8.94-6.06-.09-.83,0-1.68-.15-2.5-2.11-12.21,1.18-22.69,8.92-32.4,5.78-7.25,10.38-15.43,15.51-23.2Z"/><path class="cls-2" d="M234.19,165.94c5.29,2.18,6.45,5.48,4.6,11-5.1,15.32-11.85,29.63-22.75,41.74-.66.74-1.23,1.84-2.06,2.12-2.4.81-5.13,2.12-7.31,1.57-1.27-.31-2.09-3.77-2.44-5.93a11,11,0,0,1,.79-5.34,130.31,130.31,0,0,1,28-44.46A4.74,4.74,0,0,1,234.19,165.94Z"/><path class="cls-2" d="M44.5,137.76l5.68,6.53L17.7,170.67C20.23,154.51,35.63,149.56,44.5,137.76Z"/></g></g></g></svg>