<svg xmlns="http://www.w3.org/2000/svg" viewBox="0 0 300 300"><defs><style>.cls-1{fill:none;}.cls-2{fill:#06205c;}</style></defs><title>iconoArticulosMedicos</title><g id="Capa_2" data-name="Capa 2"><g id="Capa_1-2" data-name="Capa 1"><g id="iconoArticulosMedicos"><path class="cls-1" d="M300,300H0V0H300Z"/><path class="cls-2" d="M256.48,288.64H42V10.11H48q68,0,136-.08a8.94,8.94,0,0,1,7.82,3.57c5.12,6.07,11,11.5,16.28,17.45q23.85,26.85,47.42,54a6.58,6.58,0,0,1,1.38,4q.09,99,0,197.91A8.91,8.91,0,0,1,256.48,288.64ZM236.77,269V92.67H179.9V30.21H61.59V269Z"/><path class="cls-2" d="M200.54,166.19l21.64,12.25c-11.85,23.37-23.59,46.55-35.56,70.16l-23.05-12.13Z"/><path class="cls-2" d="M148,113.69c-20.32,0-40.65.06-61-.08-2.14,0-4.79-.63-6.3-2-2.29-2-.63-6.17,2.58-7a20,20,0,0,1,5-.31H208.69c.83,0,1.67,0,2.5,0,3.11,0,5.85.84,5.89,4.57,0,4-2.76,4.81-6.13,4.81Q179.47,113.67,148,113.69Z"/><path class="cls-2" d="M148.2,137.69H87.73c-1.33,0-3,.43-3.92-.21-1.58-1.09-3.69-2.84-3.71-4.34s2-3.45,3.54-4.52c1-.71,2.91-.3,4.4-.3H209c1.49,0,3.35-.41,4.39.31,1.56,1.07,3.53,3,3.48,4.53s-2.17,3.25-3.76,4.34c-.93.62-2.59.19-3.92.19Z"/><path class="cls-2" d="M111,166.31h7.9c1.16,0,2.33,0,3.49,0,5.07,0,3.54,4.05,3.06,6.11-.79,3.43,3.59,8.85-3,10.13-3.49.68-7.22.12-11.4.12v14H94.7v-14H81.46V166.43H94.67V152.28H111Z"/><path class="cls-2" d="M132.45,217.14c-12-3.28-21.7.81-31.27,6.11-9.93,5.49-15.34,14.91-22.15,23.54.78-1.75,1.52-3.51,2.34-5.23s1.76-3.58,2.7-5.34c7.15-13.34,18.13-22,32.79-25.41,4.9-1.14,10.27-.86,15.36-.46,4.51.36,7.05,4.71,6,9.18a46.35,46.35,0,0,1-1.7,5.06c2.71,1.87,6.45,3.16,7.42,5.57.74,1.83-2.05,5.08-3.27,7.69l8.88,2.05-.2.39H128l-.23-1,12.07-7.7c-5.33-.92-8.66-.64-11.91,2.16-6.09,5.24-12.69,9.71-21.44,9.85-1.43-4.41-.38-8.2,3.3-10.5a41.64,41.64,0,0,1,12.14-5.5C127.66,226.27,129.73,222.19,132.45,217.14Z"/><path class="cls-2" d="M115.1,66.69c-9.64,0-19.28,0-28.92,0-3.29,0-6.26-.59-6.3-4.6s2.88-4.79,6.18-4.79q29.18,0,58.33,0c3.06,0,5.55.59,5.57,4.63s-2.27,4.73-5.45,4.73Z"/><path class="cls-2" d="M115.5,89.89c-10,0-20,0-29.92,0-2.75,0-5.67.28-5.72-3.63s2.67-5,6-5h53.36c1.83,0,3.66,0,5.49,0,3.24.07,5.27,1.12,5.23,5s-2.49,3.59-5,3.59Q130.22,89.87,115.5,89.89Z"/><path class="cls-2" d="M204.51,158.69c2.73-5.43,5.22-10.4,7.69-15.33L235,154.08l-8.9,16.68Z"/><path class="cls-2" d="M225.41,177.52,199.52,163c.5-1.22,1-2.35,1.47-3.58a6.79,6.79,0,0,1,1.57.38c8,4.38,15.93,8.91,24,13.12,3.26,1.7,3.9,3.39,2.07,6.65-5.94,10.57-11.66,21.26-17.4,31.93-.68,1.28-.72,2.94-1.51,4.13a29.67,29.67,0,0,1-3.67,3.87l-1.45-1.17C211.48,204.84,218.35,191.38,225.41,177.52Z"/><path class="cls-2" d="M163.8,263.89c-.6-8.52-1.13-16-1.72-24.42l22.82,12Z"/></g></g></g></svg>