<svg xmlns="http://www.w3.org/2000/svg" viewBox="0 0 300 300"><defs><style>.cls-1{fill:none;}.cls-2{fill:#06205c;}.cls-3{fill:#fff;}</style></defs><title>iconoContenidoEditorial</title><g id="Capa_2" data-name="Capa 2"><g id="Capa_1-2" data-name="Capa 1"><g id="iconoContenidoEditorial"><path class="cls-1" d="M300,300H0V0H300Z"/><path class="cls-2" d="M159.89,240.6c41.53-14.59,84.5-14.06,128.21-11.76-1.72-51.23-3.42-102.2-5.13-153.49h7.92c0,4.1-.05,8.17,0,12.24q.68,49.05,1.4,98.1c.25,16.26.66,32.52.78,48.79,0,1.6-1.52,3.21-3,6.1.93,2.24,2.51,6,4.49,10.81-6.9-1.3-12.95-2.53-19-3.56-31.79-5.36-63.66-5.08-95.57-1.24-1.81.22-3.64.38-5.45.67-3.22.52-5.86,1.16-8.19,4.39-5.75,7.94-24.36,7.29-30.71-.33a9.85,9.85,0,0,0-5.52-3.23C89.59,242,49.19,241.71,9,251c-.78.18-1.59.22-3.13.44,1.09-2.6,2-4.65,2.82-6.72s1.6-3.94,2.55-6.31l-5.17-.51c.91-54,1.83-108,2.75-162.47h7.54q-2.5,76.46-5,152.93c21.72,0,43-.65,64.18.18a216.06,216.06,0,0,1,61.93,11.24c-38.81-17.17-80-17.56-122-16.52C17.3,168,19.1,112.86,20.92,57.46H34.24l1.14-11.94c26.79-3,86.62,4.1,114.37,36.39,14.33-16.14,33-24.8,53.34-30.39,19.72-5.41,39.86-7.12,60.7-6.81.5,4.28,1,8.31,1.47,12.56h13.22c1.82,55.26,3.63,110.34,5.46,166C241.37,222.35,199.33,222.54,159.89,240.6ZM267.26,202q-5.14-74.16-10.37-149.41a188.08,188.08,0,0,0-48.67,5.65C190.64,62.66,174.14,69.38,160.57,82a12.81,12.81,0,0,0-4.31,10Q155.7,160.22,155,228.4c0,1.42.16,2.84.29,5.06a204.14,204.14,0,0,1,54.42-20.37C228.53,208.94,247.52,205.74,267.26,202ZM144.31,233.4c0-2.64,0-4.55,0-6.45-.4-41.66-1.54-83.33-.8-125,.26-14.44-5-23.08-16.87-29.32-1-.55-2-1.22-3-1.8C108.1,62,91.22,57.15,73.62,54.8c-10.15-1.35-20.4-1.91-31.09-2.87-3.53,51-7,100.91-10.43,151C71.07,207.58,108.81,214.77,144.31,233.4Z"/><path class="cls-3" d="M267.26,202c-19.74,3.78-38.73,7-57.51,11.13a204.14,204.14,0,0,0-54.42,20.37c-.13-2.22-.3-3.64-.29-5.06q.6-68.19,1.22-136.37a12.81,12.81,0,0,1,4.31-10c13.57-12.61,30.07-19.33,47.65-23.79a188.08,188.08,0,0,1,48.67-5.65Q262.11,127.71,267.26,202Z"/><path class="cls-3" d="M144.31,233.4c-35.5-18.63-73.24-25.82-112.21-30.49,3.46-50.07,6.9-99.95,10.43-151,10.69,1,20.94,1.52,31.09,2.87,17.6,2.35,34.48,7.21,50,16.06,1,.58,2,1.25,3,1.8,11.83,6.24,17.13,14.88,16.87,29.32-.74,41.64.4,83.31.8,125C144.33,228.85,144.31,230.76,144.31,233.4Z"/></g></g></g></svg>