<svg xmlns="http://www.w3.org/2000/svg" viewBox="0 0 300 300"><defs><style>.cls-1{fill:none;}.cls-2{fill:#06205c;}</style></defs><title>iconoHome</title><g id="Capa_2" data-name="Capa 2"><g id="Capa_1-2" data-name="Capa 1"><g id="iconoHome"><rect class="cls-1" width="300" height="300"/><path class="cls-2" d="M260.4,281.23H136.68V183.88H91.62v97.35h-52V159.65l-5.54,4.51L8.5,127.89,150.26,18.77l35.86,27.51V20.09h47v62.7L291.5,127.9,266,164.16l-5.55-4.51ZM146.76,271.15H250.33V138.44l13.6,11.08L277.71,130,223,87.74V30.16H196.2V66.71L150.27,31.48,22.3,130l13.77,19.54,13.61-11.08V271.15H81.54V173.8h65.22Zm87.52-29.73H168.1V173.8h66.18Zm-56.1-10.08h46V183.88h-46Z"/></g></g></g></svg>