<svg xmlns="http://www.w3.org/2000/svg" viewBox="0 0 300 300"><defs><style>.cls-1{fill:#fff;}.cls-2{fill:#06205c;}</style></defs><title>iconoNotificaciones</title><g id="Capa_2" data-name="Capa 2"><g id="Capa_1-2" data-name="Capa 1"><g id="iconoNotificaciones"><path class="cls-1" d="M0,0H300V300H0Z"/><path class="cls-2" d="M118,60.19c-5.88-19.38-2-34,11.4-43.73a35.46,35.46,0,0,1,40.46-.62c13.94,9.44,17.89,23.47,12.73,43,8.65,6.69,17.74,12.28,25,19.66,14.74,15,21.48,33.57,21.58,54.59.08,17.59,1.69,35,7.76,51.7a78.8,78.8,0,0,0,8.53,16.45c4.17,6.24,10.4,9.66,18.11,10.24,7,.52,9.53,3.45,9.59,10.44.14,14.36-1.14,15.67-15.31,15.67H39.08c-9.77,0-12.17-2.4-12.18-12.12,0-1.92-.12-3.84.05-5.74.42-4.61,3.32-7.93,7.93-8.09,11.43-.4,18.52-6.83,23.63-16.18,7.18-13.13,9.95-27.5,11.31-42.15,1.09-11.56.59-23.35,2.55-34.74,4.44-25.85,19.13-44.67,42.46-56.77C115.8,61.27,116.78,60.78,118,60.19Zm32-6.47c4.56,0,8.91-4.34,8.88-8.93a9.12,9.12,0,0,0-8.58-8.65,9,9,0,0,0-9.08,8.57A9.31,9.31,0,0,0,150,53.72Z"/><path class="cls-2" d="M192.37,255.44c-.56,16.77-20.51,34.08-39.67,34.73-22.57.75-43.06-14.82-45.22-34.73Z"/><path class="cls-1" d="M150,53.72a9.31,9.31,0,0,1-8.78-9,9,9,0,0,1,9.08-8.57,9.12,9.12,0,0,1,8.58,8.65C158.91,49.38,154.56,53.76,150,53.72Z"/></g></g></g></svg>