<svg xmlns="http://www.w3.org/2000/svg" viewBox="0 0 300 300"><defs><style>.cls-1{fill:none;}.cls-2{fill:#06205c;}</style></defs><title>iconoHerramientasMedicas</title><g id="Capa_2" data-name="Capa 2"><g id="Capa_1-2" data-name="Capa 1"><g id="iconoHerramientasMedicas"><path class="cls-1" d="M300,300H0V0H300Z"/><path class="cls-2" d="M163.92,15.92h27.17q30.75,0,61.49,0c19.61,0,33.28,13.71,33.31,33.26q0,41.61,0,83.21c0,1.62-.13,3.24-.21,5.13H163.92ZM258,86.73V72.45h-57.8V86.73Z"/><path class="cls-2" d="M14.11,164.8H136.69V170c0,37-.09,74,.11,111,0,4.68-1.38,5.77-5.88,5.74-27.81-.19-55.62-.08-83.44-.1-19.54,0-33.36-13.79-33.37-33.2C14.1,224.15,14.11,194.77,14.11,164.8Zm87.82,68.45-16.66-15,15.38-14.16L90.4,192.77,75,209.13c-5.26-5.71-10-10.93-14.57-15.85L49.13,204.14l16.46,15.51L50.34,233.11l10.24,12.1,15.29-16.69,14.19,15.79Z"/><path class="cls-2" d="M136.46,15.92V137.4H14.11V132q0-41.56,0-83.13c0-19.21,13.71-32.91,33-32.95q42.21-.06,84.42,0ZM68,72.26H46.37V87.07H67.93v21.31H83.14V87h21.57c0-3.89-.17-7.33.05-10.76s-1.2-4.33-4.38-4.22c-5.6.18-11.21,0-17.5,0V50.81H68Z"/><path class="cls-2" d="M163.57,164.81H285.89v5.09q0,41.58,0,83.16c0,20.07-13.73,33.66-33.95,33.67-28,0-55.95,0-83.93,0-3.17,0-4.79-.46-4.78-4.26.13-38.34.08-76.68.1-115C163.33,166.7,163.47,165.91,163.57,164.81Zm36.52,75.75H258V226H200.09Zm58-42H200.32v14.33h57.73Z"/></g></g></g></svg>