<svg xmlns="http://www.w3.org/2000/svg" viewBox="0 0 300 300"><defs><style>.cls-1{fill:#fff;}.cls-2{fill:#06205c;}</style></defs><title>iconoContacto</title><g id="Capa_2" data-name="Capa 2"><g id="Capa_1-2" data-name="Capa 1"><g id="iconoContacto"><path class="cls-1" d="M300,300H0V0H300Z"/><path class="cls-2" d="M125.57,280.58V193.06h37.54V108.73H125.64V19.42c6.51,1.11,12.9,1.69,19,3.35,20.68,5.64,36.18,18.63,48.59,35.53,15.64,21.29,23.87,45.49,26.76,71.46,3.73,33.61-1,66-17,96.07-12.48,23.44-29.8,42-56,50.4C140.34,278.36,133.2,279.08,125.57,280.58Z"/><path class="cls-2" d="M107.14,193.28v86.41c-7.38,0-14.51.27-21.59-.22-1.44-.1-3.58-2.9-3.86-4.69-1.32-8.49-3-17.09-2.88-25.62.23-16.52,1.55-33,2.49-49.54.27-4.79,2.58-6.89,7.77-6.45C95,193.67,100.94,193.28,107.14,193.28Z"/><path class="cls-2" d="M106.68,107.26c-7.37,0-14,.25-20.58-.2-1.37-.09-3.43-2.63-3.68-4.27-1.27-8.49-2.85-17.06-2.83-25.6,0-15.53.84-31.09,2-46.6.61-8.4,1.27-8.4,9.46-8.4,3.65,0,7.33.24,11-.07,3.81-.32,4.8,1.15,4.77,4.8-.16,18.23-.07,36.46-.07,54.69Z"/></g></g></g></svg>