<svg xmlns="http://www.w3.org/2000/svg" viewBox="0 0 300 300"><defs><style>.cls-1{fill:none;}.cls-2{fill:#06205c;}</style></defs><title>iconoTerminos</title><g id="Capa_2" data-name="Capa 2"><g id="Capa_1-2" data-name="Capa 1"><g id="iconoTerminos"><path class="cls-1" d="M300,300H0V0H300Z"/><path class="cls-2" d="M216.71,79.8c0-10.91,0-21.17,0-31.43,0-7.08,0-7.08-6.94-7.08H113v82.49H33.17V260.71H210.22c6.48,0,6.49,0,6.49-6.53,0-29.33-.08-58.66.14-88a15.56,15.56,0,0,1,3.15-8.38c3.56-4.89,7.76-9.31,12.4-14.74V280.65H17.21c-.08-1.73-.22-3.48-.23-5.24q0-75.48.13-151a12.58,12.58,0,0,1,3.16-7.76q42.5-46.09,85.37-91.86a8.45,8.45,0,0,1,5.38-2.6c39.66-.15,79.32-.11,119-.1.65,0,1.3.14,2.68.29v12.8c0,4-.61,8.11.11,12C235.5,61.62,228.23,71.14,216.71,79.8Z"/><path class="cls-2" d="M158.8,192.69l-17.06-17c9.37-11.11,18.71-22.57,28.46-33.67,19.46-22.15,39.63-43.64,63.1-61.68,5.79-4.44,12.2-8.06,18.26-12.15,2.4-1.62,4.12-1.18,6,.91a70,70,0,0,0,8.86,8.78c3.61,2.81,3.45,5.69,1.17,8.87-7,9.71-13.37,20-21.24,28.89C220.48,145,190,169.25,158.8,192.69Z"/><path class="cls-2" d="M149.15,199.52c-4.67,8.79-9,17-13.47,25.17-.59,1.07-2.12,2.39-3.16,2.34-9.44-.43-17.35,3.86-25.5,7.64-2.88,1.33-6.13,1.89-9.21,2.8.79-3.2,1.14-6.61,2.46-9.57,3.73-8.33,8.39-16.3,7.73-26-.06-.91,1.11-2.3,2.06-2.82,7.42-4.1,14.87-8.16,22.46-11.93a5.12,5.12,0,0,1,4.56.65C141.2,191.45,145,195.43,149.15,199.52ZM122.77,214l-2.13-2.07-17,18.3,1.14,1.1C110.5,225.22,117.82,220.74,122.77,214Z"/><path class="cls-2" d="M277.56,72.75,264.51,59.4c4.27-5.45,7.79-6,12.21-1.9C283.72,64.05,284,67,277.56,72.75Z"/></g></g></g></svg>