<svg xmlns="http://www.w3.org/2000/svg" viewBox="0 0 300 300"><defs><style>.cls-1{fill:none;}.cls-2{fill:#06205c;}.cls-3{fill:#fff;}</style></defs><title>iconoPerfil</title><g id="Capa_2" data-name="Capa 2"><g id="Capa_1-2" data-name="Capa 1"><g id="iconoPerfil"><path class="cls-1" d="M300,300H0V0H300Z"/><path class="cls-2" d="M238.46,243.45c-4-32.45-30.09-46.82-52.35-44.27-14.7,1.68-26.4,8.82-34.52,21.25s-9.53,25.89-5.15,41c-9.24-.6-17.68-.86-26.06-1.74-19.09-2-38-5.08-55.3-14a63.55,63.55,0,0,1-8.51-5.18c-7.53-5.5-11.82-12.35-9.6-22.23,1.08-4.83,1.33-9.85,1.85-14.8,1.07-10.17,6.38-17.74,15.6-21.49s19-5.8,28.45-8.91c8.17-2.69,16.4-5.34,24.19-8.92,5.89-2.7,9.6-7.59,8.27-14.85a21.81,21.81,0,0,1,0-5c.19-4.18.48-8.13-4.51-10.36-1.89-.84-3.21-3.33-4.38-5.31-4.65-7.9-9.75-15.28-16.86-21.39-6.5-5.57-5.92-20.07-.15-26.64a12.24,12.24,0,0,0,2.77-6.77c.8-10.57.62-21.24,1.92-31.73,1.28-10.31,7.91-16.52,18.27-18.41,5.89-1.07,11.86-1.79,17.7-3.06a46.8,46.8,0,0,0,9.85-3.44c6.54-3.07,11.79-2.22,15.59,3.73s8.58,8.18,15.53,7.48c8-.81,12.28,2.19,14,10.1a71.22,71.22,0,0,1,1.44,15.78c0,7-.77,13.91-1.23,20.86-.22,3.43.43,6,4.33,7.34,1.37.46,2.67,2.76,3,4.4.54,3.07.26,6.29.45,9.43.34,5.79-.2,10.54-6.32,14.07-3.87,2.23-6.2,7.18-9.14,11-3.66,4.7-7,9.67-10.91,14.15-7.21,8.3-2.77,25.95,8.52,30.32,7.53,2.92,15.7,4.22,23.59,6.21,2.74.69,5.53,1.19,8.25,1.95,24.85,6.91,37.78,24.39,36.52,50.11C253.08,233.47,246.27,238.59,238.46,243.45Z"/><path class="cls-2" d="M190.55,284.46a38.67,38.67,0,1,1,39.29-38.12C229.58,267.52,212,284.58,190.55,284.46Zm-4.28-43.26c-5.26,0-9.71,0-14.16,0-3.51,0-7.22.14-7.1,4.8.11,4.18,3.59,4.59,6.94,4.6h14.31c0,4.86,0,9,0,13.06,0,1.49-.37,3.34.36,4.38,1.09,1.56,3.63,3.9,4.42,3.52,1.89-.88,4.17-3.05,4.39-4.92.59-5.15.2-10.42.2-16,5.57,0,10.21,0,14.84,0,3.24,0,6.38-.77,6.46-4.6.09-4.23-3.21-4.82-6.66-4.79-4.74,0-9.48,0-14.6,0,0-5.7,0-10.49,0-15.27,0-3.3-1-6.18-5-6-3.64.18-4.39,3-4.4,6.05Z"/><path class="cls-3" d="M186.27,241.2V226c0-3.07.76-5.87,4.4-6.05,4-.19,5,2.69,5,6,.06,4.78,0,9.57,0,15.27,5.12,0,9.86,0,14.6,0,3.45,0,6.75.56,6.66,4.79-.08,3.83-3.22,4.58-6.46,4.6-4.63,0-9.27,0-14.84,0,0,5.63.39,10.9-.2,16-.22,1.87-2.5,4-4.39,4.92-.79.38-3.33-2-4.42-3.52-.73-1-.34-2.89-.36-4.38,0-4.1,0-8.2,0-13.06H172c-3.35,0-6.83-.42-6.94-4.6-.12-4.66,3.59-4.82,7.1-4.8C176.56,241.22,181,241.2,186.27,241.2Z"/></g></g></g></svg>