<svg xmlns="http://www.w3.org/2000/svg" viewBox="0 0 300 300"><defs><style>.cls-1{fill:none;}.cls-2{fill:#c8ccd0;}.cls-3{fill:#79bfd1;}.cls-4{fill:#24a5c0;}.cls-5{fill:#adb0b5;}</style></defs><title>iconoNestle_1</title><g id="Capa_2" data-name="Capa 2"><g id="Capa_1-2" data-name="Capa 1"><g id="iconoNestle"><rect class="cls-1" width="300" height="300"/><path class="cls-2" d="M149.85,237.78H106.57a1.78,1.78,0,0,1-1.55-.9L83.38,199.41a1.83,1.83,0,0,1,0-1.81L105,160.12a1.79,1.79,0,0,1,1.55-.89h43.28a1.76,1.76,0,0,1,1.54.89L173,197.6a1.83,1.83,0,0,1,0,1.81l-21.65,37.47a1.75,1.75,0,0,1-1.54.9"/><path class="cls-3" d="M259.56,140.78H216.27a1.81,1.81,0,0,1-1.55-.89l-21.64-37.48a1.76,1.76,0,0,1,0-1.8l21.64-37.49a1.79,1.79,0,0,1,1.55-.9h43.29a1.75,1.75,0,0,1,1.54.9l21.66,37.49a1.81,1.81,0,0,1,0,1.8L261.1,139.89a1.76,1.76,0,0,1-1.54.89"/><path class="cls-2" d="M218.08,212.57H148a1.84,1.84,0,0,1-1.58-.91l-35.07-60.74a1.77,1.77,0,0,1,0-1.83l35.07-60.74a1.83,1.83,0,0,1,1.58-.92h70.12a1.82,1.82,0,0,1,1.58.92l35.09,60.74a1.86,1.86,0,0,1,0,1.83l-35.09,60.74a1.84,1.84,0,0,1-1.58.91"/><path class="cls-2" d="M92.49,226.65H62a1.77,1.77,0,0,1-1.52-.87l-15.24-26.4a1.73,1.73,0,0,1,0-1.76l15.24-26.4a1.76,1.76,0,0,1,1.52-.88H92.49a1.74,1.74,0,0,1,1.52.88l15.25,26.4a1.78,1.78,0,0,1,0,1.76L94,225.78a1.75,1.75,0,0,1-1.52.87"/><path class="cls-2" d="M48.26,168.77H28.56a1.7,1.7,0,0,1-1.48-.85l-9.86-17.06a1.79,1.79,0,0,1,0-1.71l9.86-17.07a1.72,1.72,0,0,1,1.48-.85h19.7a1.73,1.73,0,0,1,1.48.85l9.85,17.07a1.69,1.69,0,0,1,0,1.71l-9.85,17.06a1.71,1.71,0,0,1-1.48.85"/><path class="cls-4" d="M219.66,88.35a1.79,1.79,0,0,0-1.58-.92h-17.4l-7.61,13.18a1.79,1.79,0,0,0,0,1.79l21.64,37.49a1.82,1.82,0,0,0,1.56.89h33.67Z"/><path class="cls-5" d="M151.4,160.12a1.81,1.81,0,0,0-1.55-.89H116.11l30.27,52.42a1.82,1.82,0,0,0,1.58.92h17.48L173,199.4a1.81,1.81,0,0,0,0-1.8Z"/><path class="cls-5" d="M96.31,175.2,83.38,197.61a1.79,1.79,0,0,0,0,1.79L96.3,221.8l13-22.42a1.78,1.78,0,0,0,0-1.76Z"/></g></g></g></svg>