<svg xmlns="http://www.w3.org/2000/svg" viewBox="0 0 300 300"><defs><style>.cls-1{fill:none;}.cls-2{fill:#06205c;}</style></defs><title>iconoAtlas</title><g id="Capa_2" data-name="Capa 2"><g id="Capa_1-2" data-name="Capa 1"><g id="iconoAtlas"><path class="cls-1" d="M300,300H0V0H300Z"/><path class="cls-2" d="M177,69.74q48.74,0,97.47,0c12.82,0,19.83,6.87,19.83,19.59q0,88.42,0,176.85c0,12.4-7.14,19.54-19.46,19.54H79.4c-12.56,0-20.05-7.19-20.06-19.66q-.11-88.17,0-176.35c0-12.88,7.3-20,20.18-20Zm90,188.78V97H87V258.52Z"/><path class="cls-2" d="M32.6,42.91V204.29L41,205v27.26c-7.62-.37-15-.18-22.1-1.23-7.32-1.07-12.51-7.62-13.54-15.4a39.19,39.19,0,0,1-.2-5q0-86.94,0-173.88c0-6.41.88-12.68,6.39-16.47,3.49-2.4,8.13-4.4,12.27-4.41q99-.4,198-.15c11.23,0,18.27,7.41,18.33,18.58,0,5.61,0,11.23,0,17.13H213.28V42.91Z"/><path class="cls-2" d="M104.75,240.46c0-14.57,0-28.84.06-43.1a4.85,4.85,0,0,1,1.36-3c6.84-7,13.76-13.93,21.07-21.3l26.85,27.07Q188.26,166,221.37,132.9c9.12,8.77,17.75,17,26.3,25.39a4.67,4.67,0,0,1,1.28,3c.07,26.24.06,52.47.06,79.13Z"/></g></g></g></svg>