<svg xmlns="http://www.w3.org/2000/svg" viewBox="0 0 300 300"><defs><style>.cls-1{fill:none;}.cls-2{fill:#06205c;}</style></defs><title>iconoGuiasPracticas</title><g id="Capa_2" data-name="Capa 2"><g id="Capa_1-2" data-name="Capa 1"><g id="iconoGuiasPracticas"><circle class="cls-1" cx="150" cy="150" r="212.13"/><path class="cls-2" d="M11.94,169.28c.5-4.62.61-9,1.64-13.12.31-1.27,3.25-2.85,4.8-2.68,5.81.65,8.52-1.31,9.88-7.23,1.25-5.41,3.9-10.62,6.61-15.55,1.74-3.18,1.41-5.09-1.25-7.17-1.95-1.53-3.75-3.26-5.88-5.13l9.84-13L48.07,111,70.83,93.45C70,90.11,69,86.27,67.91,81.85c4.25-1.86,8.41-3.78,12.67-5.44a3.48,3.48,0,0,1,2.83,1,9.7,9.7,0,0,1,2.12,3.36c1.82,4.55,4.46,6,9.59,4.47a64.66,64.66,0,0,1,16.27-2.12c4.18-.12,6.52-1.24,7-5.63.26-2.27,1.22-4.46,2-7.14l14.87,1.82c.8,5.27,1.53,10.08,2.61,17.24l-5.33,18.45c-23.72-5.14-45.31-.28-63.68,16.31C56.27,135.55,49.12,150,47.11,166.82c-4,33.27,17.49,65.17,49.5,74.12,34.08,9.53,71.38-7.08,85.12-46.48l22.45,6c-2.92,7-5.84,13.94-9.11,21.74l8.81,6.73-10.21,13.73-9.64-5c-7.5,5.61-14.72,10.91-21.76,16.42-.87.68-1.28,2.57-1.1,3.79a84.84,84.84,0,0,0,2.08,8.49l-13.62,5.81c-.71-.31-1.2-.37-1.28-.58-2.93-8.35-8.53-9.23-16.23-6.6-4.15,1.42-8.87,1.66-13.32,1.61-3.9,0-5.86,1.09-6.32,5a39.29,39.29,0,0,1-1.75,6.19l-15-1.89a5.38,5.38,0,0,1-.53-1.25c-.57-9.77-.61-9.66-10.11-13.14a66.76,66.76,0,0,1-12.73-5.68c-3.62-2.27-6-1.95-8.32,1.35-1.15,1.65-2.23,3.35-3.45,5.17L46.45,251.68c8.81-7.54,3.84-13.12-2-18.76a43.23,43.23,0,0,1-5.13-6.74c-1.6-2.31-3-4.72-4.66-7.27L23.37,221.7l-6-13.88c.23-.4.33-.86.56-.94C26.4,203.8,28,198.12,25,189.94c-1.3-3.64-1.36-7.9-1.2-11.85.17-4.21-1-6.59-5.39-7.11A52.47,52.47,0,0,1,11.94,169.28Z"/><path class="cls-2" d="M174.13,58.16l32.74-11c0-.47.16-2.06.32-4.26-1.85-.08-3.44-.2-5-.22-7.1-.1-7.2-.16-7.18-7.46,0-13.43-1.4-12.11,11.93-12.13,6.16,0,12.34.23,18.49-.08,4.92-.24,6.37,1.89,6.36,6.51,0,12.18.1,12.18-11.85,13.53-1.35,3.68-.55,5.15,3.83,6.21,9.43,2.28,18.61,5.62,28.66,8.77,1.43-1.62,3.82-4.17,6-6.85,2.59-3.12,5.14-3.13,8-.41s5.68,5.15,8.61,7.62c2.61,2.2,2.5,4.5.45,6.91-2.36,2.78-4.8,5.49-7.47,8.54,14.19,18.18,19.26,38.61,14.46,61.06-3.6,16.89-12.63,30.61-26.39,41.16-26.6,20.38-65.21,18.71-90.28-3.58-24.64-21.92-34.52-63.63-7.69-98.75-2.3-2.67-4.57-5.52-7.06-8.15-2.68-2.82-2.4-5.17.52-7.57,2.7-2.22,5.38-4.49,7.87-6.93,3.17-3.09,5.9-3.21,8.75.42C170.28,54.12,172.63,56.48,174.13,58.16Zm38.59,110.15c26.69.21,49.2-21.36,49.39-47.34.2-28.25-21.14-50.46-48.69-50.68C186.78,70.08,164.35,92.22,164,119S185.8,168.1,212.72,168.31Z"/><path class="cls-2" d="M225.15,248.51c-2.18-3.74-3.92-6.73-5.79-10,2.9-2.76,6.3-4.34,5.37-10-.87-5.3-4.21-6-7.89-7.76l2.73-10.48c3.88-.1,7.6,1.77,10.85-3,2.81-4.13,2.14-7.07.21-11.11l9.37-5.43c7.38,7.88,13.26,7.18,17.94-2.29L268,191.09c-.13,11,4.43,14.48,14.54,11.06l5.53,9.48c-3.64,2.47-6,4.54-5.53,9.91.48,5.83,4.81,5.46,7.91,8-.91,3.38-1.82,6.82-2.83,10.58-4.51-1.21-7.56-1.26-11,2.92-3.59,4.36-.93,7.15,0,10.9l-9.33,5.35c-2.79-3-4.75-6.16-10.13-5.33s-6,4.38-7.84,8.13l-10.07-2.61c-1-3.8,2-7.95-3.15-11.08C232.09,245.91,229.23,245.2,225.15,248.51Zm17.58-23.39A11.12,11.12,0,0,0,254,236a11.05,11.05,0,1,0-11.22-10.91Z"/><path class="cls-2" d="M224.17,120.09a43.4,43.4,0,0,0-.25,5.45c.26,3.55-1.31,4.88-4.74,4.53a13.42,13.42,0,0,0-3.45.25c-8.37,1.34-14.68-4.28-13.52-12.57a6.59,6.59,0,0,0-2.27-6.45c-4.81-4.61-9.65-9.21-14-14.21-1.29-1.47-2.23-5.06-1.37-6.24,2.11-2.88,4.61-.95,6.62,1.09q5.08,5.16,10.25,10.24c3.53,3.46,6.25,7.31,12.78,6.26C220.16,107.47,224.51,113.56,224.17,120.09Z"/></g></g></g></svg>