<svg xmlns="http://www.w3.org/2000/svg" viewBox="0 0 57.77 18.63"><defs><style>.cls-1{fill:#036;}</style></defs><title>logoHeader</title><g id="Capa_2" data-name="Capa 2"><g id="Capa_1-2" data-name="Capa 1"><g id="Grupo_761" data-name="Grupo 761"><g id="Grupo_760" data-name="Grupo 760"><g id="Grupo_759" data-name="Grupo 759"><g id="Grupo_758" data-name="Grupo 758"><g id="Grupo_757" data-name="Grupo 757"><path id="Trazado_1221" data-name="Trazado 1221" class="cls-1" d="M0,18.59H6V13.45H9.15a6.3,6.3,0,0,0,3-.68,5.13,5.13,0,0,0,2-2,6.42,6.42,0,0,0,.68-3,6.6,6.6,0,0,0-.54-2.74,5.34,5.34,0,0,0-1.46-2A6.86,6.86,0,0,0,10.57,2a9.81,9.81,0,0,0-2.74-.39H0ZM6,6.21h.58a4.14,4.14,0,0,1,.79,0l.73.15a1.16,1.16,0,0,1,.54.44,1.25,1.25,0,0,1,.2.78,1.42,1.42,0,0,1-.2.83,1.6,1.6,0,0,1-1.27.69,4.68,4.68,0,0,1-.83,0H5.92v-3Z"/><path id="Trazado_1222" data-name="Trazado 1222" class="cls-1" d="M16.43,18.59h11.4V13.11H22.65V1.57H16.43Z"/><path id="Trazado_1223" data-name="Trazado 1223" class="cls-1" d="M28.81,18.59h6l.73-7.29c.05-.34.05-.69.1-1a7,7,0,0,0,0-1h.2A6.38,6.38,0,0,0,36,10.32a10.46,10.46,0,0,0,.24,1.08l2.2,7.19h3.62L44.52,11c.1-.3.14-.54.24-.84s.15-.58.2-.83h.1l.83,9.34h6l-2.8-17H42.8l-1.91,6.7a7.33,7.33,0,0,0-.24,1.13c0,.39-.15.78-.2,1.12H40.3L38,1.61H31.6Z"/><path id="Trazado_1224" data-name="Trazado 1224" class="cls-1" d="M53,5V1.57h1.81a.8.8,0,0,1,.54.14.8.8,0,0,1,.34.34.88.88,0,0,1,.15.49,1,1,0,0,1-.93,1,1,1,0,0,1,.24.15l.25.24s.1.2.24.44l.39.69h-.88l-.29-.59a1.92,1.92,0,0,0-.49-.73.84.84,0,0,0-.49-.15h-.2V5H53Zm.69-2H54A2.57,2.57,0,0,0,54.78,3,.89.89,0,0,0,55,2.89c0-.1.1-.15.1-.25A.4.4,0,0,0,55,2.4a.26.26,0,0,0-.25-.15,2.57,2.57,0,0,0-.73,0h-.29v.88Z"/><path id="Trazado_1225" data-name="Trazado 1225" class="cls-1" d="M54.49,0A3.38,3.38,0,0,1,56.1.44a3,3,0,0,1,1.23,1.22,3.58,3.58,0,0,1,.44,1.67,3.17,3.17,0,0,1-.44,1.61A3,3,0,0,1,56.1,6.16a3.27,3.27,0,0,1-1.61.44,3,3,0,0,1-1.62-.44,2.93,2.93,0,0,1-1.22-1.22,3.38,3.38,0,0,1-.44-1.61,3.36,3.36,0,0,1,.44-1.67A3,3,0,0,1,52.87.44,3.42,3.42,0,0,1,54.49,0Zm0,.64A2.35,2.35,0,0,0,53.22,1a2.67,2.67,0,0,0-1,3.62,2.37,2.37,0,0,0,1,1,2.5,2.5,0,0,0,1.32.34,2.62,2.62,0,0,0,2.3-1.32,2.46,2.46,0,0,0,.34-1.32A2.62,2.62,0,0,0,55.86,1,3.85,3.85,0,0,0,54.49.63Z"/></g></g></g></g></g></g></g></svg>