<svg xmlns="http://www.w3.org/2000/svg" viewBox="0 0 290 84.87"><defs><style>.cls-1{fill:#c8ccd0;}.cls-2{fill:#79bfd1;}.cls-3{fill:#24a5c0;}.cls-4{fill:#adb0b5;}.cls-5{fill:#023a78;fill-rule:evenodd;}.cls-6{fill:#0fa0cc;}.cls-7{fill:#838991;}</style></defs><title>logoHeaderNestle</title><g id="Capa_2" data-name="Capa 2"><g id="Capa_1-2" data-name="Capa 1"><path class="cls-1" d="M44.68,84.87H30.12a.6.6,0,0,1-.52-.3L22.33,72a.61.61,0,0,1,0-.61L29.6,58.75a.62.62,0,0,1,.52-.3H44.68a.62.62,0,0,1,.52.3l7.28,12.61a.61.61,0,0,1,0,.61L45.2,84.57a.6.6,0,0,1-.52.3"/><path class="cls-2" d="M81.57,52.25H67a.6.6,0,0,1-.52-.3L59.22,39.34a.59.59,0,0,1,0-.6L66.5,26.13a.58.58,0,0,1,.52-.3H81.57a.58.58,0,0,1,.52.3l7.29,12.61a.64.64,0,0,1,0,.6L82.09,52a.6.6,0,0,1-.52.3"/><path class="cls-1" d="M67.63,76.39H44a.63.63,0,0,1-.53-.3L31.72,55.66a.58.58,0,0,1,0-.62L43.51,34.61a.63.63,0,0,1,.53-.3H67.63a.64.64,0,0,1,.53.3L80,55a.62.62,0,0,1,0,.62L68.16,76.09a.64.64,0,0,1-.53.3"/><path class="cls-1" d="M25.39,81.13H15.14a.57.57,0,0,1-.51-.3L9.5,72a.57.57,0,0,1,0-.59l5.13-8.88a.57.57,0,0,1,.51-.3H25.39a.58.58,0,0,1,.51.3L31,71.37A.62.62,0,0,1,31,72L25.9,80.83a.58.58,0,0,1-.51.3"/><path class="cls-1" d="M10.51,61.66H3.89a.58.58,0,0,1-.5-.28L.08,55.64a.55.55,0,0,1,0-.58l3.31-5.74a.58.58,0,0,1,.5-.28h6.62a.58.58,0,0,1,.5.28l3.31,5.74a.55.55,0,0,1,0,.58L11,61.38a.58.58,0,0,1-.5.28"/><path class="cls-3" d="M68.16,34.62a.6.6,0,0,0-.53-.31H61.77l-2.56,4.43a.64.64,0,0,0,0,.6L66.49,52a.63.63,0,0,0,.53.3H78.34Z"/><path class="cls-4" d="M45.2,58.75a.62.62,0,0,0-.52-.3H33.33L43.51,76.08a.61.61,0,0,0,.53.31h5.88L52.48,72a.59.59,0,0,0,0-.6Z"/><path class="cls-4" d="M26.67,63.83l-4.35,7.53a.64.64,0,0,0,0,.6l4.35,7.54L31,72a.62.62,0,0,0,0-.59Z"/><path class="cls-5" d="M248.9,49.6a3,3,0,0,1-3,3h-4.39a3,3,0,0,1-3-3V3.67a3,3,0,0,1,3-3h4.39a3,3,0,0,1,3,3V49.6Z"/><path class="cls-5" d="M254.5,4.89V7.07a1.64,1.64,0,0,0,1.65,1.63h30.3A2.49,2.49,0,0,0,289,6.2V2.51A2.42,2.42,0,0,0,286.44,0s-29.29,2.87-30.23,3a1.88,1.88,0,0,0-1.71,1.9Z"/><path class="cls-5" d="M234,52.58a2.26,2.26,0,0,0,2.26-2.25V47A2.26,2.26,0,0,0,234,44.73h-.61c-3.61,0-5.64-2.28-5.64-5.62v-17h6.68A2.07,2.07,0,0,0,236.51,20V17a2.08,2.08,0,0,0-2.08-2.08h-6.68V3.6a2.9,2.9,0,0,0-2.9-2.9h-4.28a2.88,2.88,0,0,0-2.88,2.89v11.3h-2.16A2.08,2.08,0,0,0,213.45,17V20a2.08,2.08,0,0,0,2.08,2.08h2.16V40.5A11.91,11.91,0,0,0,230,52.58Z"/><path class="cls-5" d="M159.38,13.57c-12.18,0-19,9.54-19,19.59,0,10.7,7.32,20.13,19.1,20.13,8.06,0,16-4.24,17.51-11.22a1.79,1.79,0,0,0-1.75-2.18h-5.76A2.87,2.87,0,0,0,167,41.15c-1.65,2.41-4.06,3.7-7.63,3.7a8.81,8.81,0,0,1-8.81-8.39h24.5c2.25,0,3.26-1.22,3.26-3.31,0-9.79-5.8-19.58-19-19.58Zm0,7.86A8.6,8.6,0,0,1,168.16,29H150.67a8.53,8.53,0,0,1,8.71-7.54Z"/><path class="cls-5" d="M271,13.57c-12.19,0-19,9.54-19,19.59,0,10.7,7.32,20.13,19.1,20.13,8.06,0,16-4.24,17.51-11.22a1.8,1.8,0,0,0-1.76-2.18h-5.76a2.85,2.85,0,0,0-2.41,1.26c-1.65,2.41-4.06,3.7-7.63,3.7a8.81,8.81,0,0,1-8.81-8.39h24.5c2.25,0,3.26-1.22,3.26-3.31,0-9.79-5.8-19.58-19-19.58Zm0,7.86A8.6,8.6,0,0,1,279.8,29H262.31A8.53,8.53,0,0,1,271,21.43Z"/><path class="cls-5" d="M209.45,1.21H130.09a3.26,3.26,0,0,0-3.26,3.27l.27,31.16S110,4.76,109.11,3.18A5.83,5.83,0,0,0,104,.33H97.45A3.28,3.28,0,0,0,94.18,3.6V49.31a3.25,3.25,0,0,0,3.25,3.26h4.19a3.26,3.26,0,0,0,3.26-3.27l-.24-32s17.26,31.2,18,32.42a5.74,5.74,0,0,0,5.13,2.89h6A3.26,3.26,0,0,0,137,49.31V9h72.43a2.23,2.23,0,0,0,2.23-2.23V3.44a2.23,2.23,0,0,0-2.23-2.23Z"/><path class="cls-5" d="M196.6,21.05c3.45,0,6,1.25,7,3.42.45,1,1.31,1.24,2.5,1.24h4.74a1.73,1.73,0,0,0,1.69-1.7c0-5.52-6.58-10.44-15.9-10.44-9.63,0-16,4.59-16,11.9,0,5.59,4.42,8.93,9.86,10.34,2.47.65,6.7,1.7,8.76,2.24,2.22.58,4.21,1.26,4.21,3.16,0,3-3.17,4-6.62,4-3.27,0-6.54-1.46-7.47-3.79-.54-1.36-1.49-1.55-2.93-1.55h-4.82a1.86,1.86,0,0,0-1.81,1.82v.62c0,5.34,7.16,10.93,17,10.93,7,0,16.77-2.91,16.77-12.31,0-5.44-3.65-9.2-9.57-10.71L195,27.92c-2.15-.56-4.17-1.26-4.17-3.11,0-2.8,2.59-3.76,5.82-3.76Z"/><path class="cls-6" d="M93.69,61.65a.32.32,0,0,1,.34-.34h3.33a.32.32,0,0,1,.34.34v9.11a.18.18,0,0,0,.2.21h8.81c.14,0,.2-.07.2-.21V61.65a.33.33,0,0,1,.35-.34h3.33a.33.33,0,0,1,.34.34V84.09a.32.32,0,0,1-.34.34h-3.33a.32.32,0,0,1-.35-.34V74.78c0-.14-.06-.2-.2-.2H97.9a.18.18,0,0,0-.2.2v9.31a.32.32,0,0,1-.34.34H94a.32.32,0,0,1-.34-.34Z"/><path class="cls-6" d="M114.29,80.25a12.67,12.67,0,0,1-.58-4,13.09,13.09,0,0,1,.55-4c.92-2.85,3.43-4.52,6.7-4.52a6.65,6.65,0,0,1,6.73,4.52,14.84,14.84,0,0,1,.54,4.93.32.32,0,0,1-.37.34h-10.1c-.14,0-.2.07-.2.21a3.81,3.81,0,0,0,3.9,3.74,5,5,0,0,0,3.85-1.56c.17-.18.34-.21.51-.07l2,1.76a.32.32,0,0,1,0,.48,8.66,8.66,0,0,1-6.73,2.79c-3.47,0-5.92-1.7-6.84-4.56m9.9-7.24a3.5,3.5,0,0,0-6.43,0,4.08,4.08,0,0,0-.2,1.39c0,.14.06.21.2.21h6.43a.18.18,0,0,0,.2-.21,4.34,4.34,0,0,0-.2-1.39"/><path class="cls-6" d="M140.71,84.43a.32.32,0,0,1-.34-.34V82.9h0c-.79,1.13-2.32,1.91-4.63,1.91-3,0-5.51-1.57-5.51-5s2.52-5.2,6.57-5.2h3.33a.18.18,0,0,0,.2-.21v-.78c0-1.87-.88-2.72-3.63-2.72A5.8,5.8,0,0,0,132.92,72a.3.3,0,0,1-.47-.06l-1.26-2.25a.31.31,0,0,1,.07-.44,9.56,9.56,0,0,1,5.81-1.6c5,0,6.84,1.7,6.84,5.72v10.7a.32.32,0,0,1-.34.34Zm-.41-5.5V77.67a.18.18,0,0,0-.2-.21h-2.72c-2.45,0-3.54.68-3.54,2.22,0,1.35,1,2,2.83,2,2.34,0,3.63-.92,3.63-2.79"/><path class="cls-6" d="M151.79,84.64c-3.19,0-4.48-1.53-4.48-4.69V61.65a.32.32,0,0,1,.33-.34h3.13a.33.33,0,0,1,.35.34V79.74c0,1.12.44,1.5,1.42,1.5h.75a.32.32,0,0,1,.34.34V84.3a.33.33,0,0,1-.34.34Z"/><path class="cls-6" d="M160.87,84.64c-3.3,0-4.56-1.6-4.56-4.79V71.21c0-.14-.06-.21-.2-.21H155a.32.32,0,0,1-.34-.34V68.39A.33.33,0,0,1,155,68h1.09c.14,0,.2-.06.2-.2V63.35a.33.33,0,0,1,.35-.34h3.12a.32.32,0,0,1,.34.34v4.49c0,.14.07.2.21.2h2.17a.32.32,0,0,1,.34.35v2.27a.32.32,0,0,1-.34.34h-2.17a.19.19,0,0,0-.21.21v8.5c0,1.15.48,1.53,1.53,1.53h.85a.32.32,0,0,1,.34.34V84.3a.32.32,0,0,1-.34.34Z"/><path class="cls-6" d="M176.17,84.43a.32.32,0,0,1-.34-.33V74.64c0-2.11-1.05-3.57-3.09-3.57s-3.13,1.46-3.13,3.57V84.1a.32.32,0,0,1-.34.33h-3.13a.32.32,0,0,1-.34-.33V61.65a.33.33,0,0,1,.34-.34h3.13a.33.33,0,0,1,.34.34v7.93h0A5.09,5.09,0,0,1,174,67.67c3.5,0,5.68,2.59,5.68,6.09V84.1a.32.32,0,0,1-.34.33Z"/><path class="cls-7" d="M184.67,81.77a.37.37,0,0,1-.07-.51l2.09-2.42a.31.31,0,0,1,.48,0,10.24,10.24,0,0,0,6.24,2.43c2.73,0,4.31-1.38,4.31-3.3,0-1.66-1-2.74-4.18-3.18l-1.21-.16c-4.42-.61-6.92-2.74-6.92-6.55,0-4.15,3-6.91,7.76-6.91a12.61,12.61,0,0,1,7.42,2.29.3.3,0,0,1,.07.47L199,66.39a.33.33,0,0,1-.47.1,9.67,9.67,0,0,0-5.5-1.79c-2.33,0-3.61,1.28-3.61,3.07,0,1.59,1.11,2.66,4.22,3.11l1.21.16c4.42.61,6.85,2.7,6.85,6.65s-2.94,7.12-8.64,7.12a12.9,12.9,0,0,1-8.43-3"/><path class="cls-7" d="M204.23,80.32a12.69,12.69,0,0,1-.5-4,12.76,12.76,0,0,1,.5-4c1-2.9,3.44-4.49,6.72-4.49a7.09,7.09,0,0,1,5.63,2.53.35.35,0,0,1,0,.48l-2.13,1.85a.3.3,0,0,1-.47-.06,3.67,3.67,0,0,0-3-1.42,3,3,0,0,0-3,2.12,9.59,9.59,0,0,0-.34,3,9.77,9.77,0,0,0,.34,3,3,3,0,0,0,3,2.09A3.69,3.69,0,0,0,214,80a.3.3,0,0,1,.47,0l2.13,1.86c.16.14.13.3,0,.47a7.16,7.16,0,0,1-5.63,2.5c-3.28,0-5.77-1.59-6.72-4.49"/><path class="cls-7" d="M219.61,65.11a.32.32,0,0,1-.33-.34V61.83a.31.31,0,0,1,.33-.33h3.11a.32.32,0,0,1,.34.33v2.94a.33.33,0,0,1-.34.34Zm0,19.33a.32.32,0,0,1-.33-.34V68.51a.32.32,0,0,1,.33-.34h3.11a.33.33,0,0,1,.34.34V84.1a.33.33,0,0,1-.34.34Z"/><path class="cls-7" d="M226.33,80.29a12.56,12.56,0,0,1-.58-4,13.22,13.22,0,0,1,.54-4,7.19,7.19,0,0,1,13.33,0,14.6,14.6,0,0,1,.54,4.89.33.33,0,0,1-.37.34h-10a.18.18,0,0,0-.2.2A3.66,3.66,0,0,0,229.8,79a3.54,3.54,0,0,0,3.64,2.46,4.9,4.9,0,0,0,3.82-1.55c.17-.17.34-.2.5-.07l2,1.76a.3.3,0,0,1,0,.47,8.58,8.58,0,0,1-6.68,2.77c-3.44,0-5.87-1.69-6.78-4.52m9.81-7.19a3.47,3.47,0,0,0-6.37,0,4,4,0,0,0-.2,1.39.18.18,0,0,0,.2.2h6.37a.18.18,0,0,0,.21-.2,4,4,0,0,0-.21-1.39"/><path class="cls-7" d="M253.15,84.44a.32.32,0,0,1-.34-.34V74.72c0-2.09-1.05-3.54-3.07-3.54s-3.11,1.45-3.11,3.54V84.1a.32.32,0,0,1-.33.34h-3.11a.33.33,0,0,1-.34-.34V68.51a.33.33,0,0,1,.34-.34h3.11a.32.32,0,0,1,.33.34v1.18h0A5,5,0,0,1,251,67.81c3.48,0,5.64,2.56,5.64,6V84.1a.33.33,0,0,1-.34.34Z"/><path class="cls-7" d="M259.62,80.32a12.65,12.65,0,0,1-.51-4,12.72,12.72,0,0,1,.51-4c.94-2.9,3.44-4.49,6.71-4.49A7.1,7.1,0,0,1,272,70.33a.35.35,0,0,1,0,.48l-2.13,1.85a.3.3,0,0,1-.47-.06,3.67,3.67,0,0,0-3-1.42,3,3,0,0,0-3,2.12,9.59,9.59,0,0,0-.34,3,9.77,9.77,0,0,0,.34,3,3,3,0,0,0,3,2.09,3.69,3.69,0,0,0,3-1.41.3.3,0,0,1,.47,0l2.13,1.86c.16.14.13.3,0,.47a7.17,7.17,0,0,1-5.64,2.5c-3.27,0-5.77-1.59-6.71-4.49"/><path class="cls-7" d="M274.36,80.29a14.69,14.69,0,0,1,0-8,7.18,7.18,0,0,1,13.32,0,14.6,14.6,0,0,1,.54,4.89.32.32,0,0,1-.37.34h-10a.18.18,0,0,0-.2.2,3.43,3.43,0,0,0,.24,1.25,3.54,3.54,0,0,0,3.64,2.46,4.89,4.89,0,0,0,3.81-1.55.35.35,0,0,1,.51-.07l2,1.76a.3.3,0,0,1,0,.47,8.55,8.55,0,0,1-6.68,2.77c-3.44,0-5.87-1.69-6.78-4.52m9.82-7.19a3.48,3.48,0,0,0-6.38,0,4.3,4.3,0,0,0-.2,1.39.18.18,0,0,0,.2.2h6.38a.18.18,0,0,0,.2-.2,4.3,4.3,0,0,0-.2-1.39"/></g></g></svg>