<svg xmlns="http://www.w3.org/2000/svg" viewBox="0 0 25 25"><defs><style>.cls-1{fill:#7b20a3;}</style></defs><title>icono-cie-10</title><g id="Capa_2" data-name="Capa 2"><g id="Capa_1-2" data-name="Capa 1"><g id="Capa_1-2-2" data-name="Capa 1-2"><g id="Capa_2-2" data-name="Capa 2-2"><g id="Home"><path class="cls-1" d="M13.57,6.42V0H4.17A1.22,1.22,0,0,0,3,1.12V12H.4a.38.38,0,0,0-.4.4v.72a.39.39,0,0,0,.4.41H7c.16,0,.32.08.32.16l1,1.92,2.65-5.38a.48.48,0,0,1,.64-.08h.08l1.6,3.29h3.3a.73.73,0,0,1,.72.73.72.72,0,0,1-.72.72H12.36l-1-2-2.73,5.3c-.08.32-.48.32-.64,0L6.34,14.93H3v8A1.22,1.22,0,0,0,4.17,24H19.91a1.22,1.22,0,0,0,1.2-1.12V7.55H14.69A1.1,1.1,0,0,1,13.57,6.42ZM20.71,5,16.13.32a1,1,0,0,0-.8-.32H15V6h6.1V5.7A.84.84,0,0,0,20.71,5Z"/></g></g></g></g></g></svg>