<svg xmlns="http://www.w3.org/2000/svg" viewBox="0 0 25 25"><defs><style>.cls-1{fill:gold;}</style></defs><title>icono-sustancias</title><g id="Capa_2" data-name="Capa 2"><g id="Capa_1-2" data-name="Capa 1"><g id="Capa_1-2-2" data-name="Capa 1-2"><g id="Capa_2-2" data-name="Capa 2-2"><g id="Home"><path class="cls-1" d="M23.83,8.48,15.43.16A.28.28,0,0,0,15,.08h-.15L13.11,1.81a.46.46,0,0,0,0,.6l.6.52L1.64,15a5.33,5.33,0,0,0-.45,7.2,5.12,5.12,0,0,0,7.27.52c.08-.07.23-.15.3-.22l12.3-12.3.52.6a.46.46,0,0,0,.6,0l1.65-1.72C24.06,8.93,24.06,8.7,23.83,8.48ZM15.88,12H8l7.42-7.34,3.9,3.89Z"/></g></g></g></g></g></svg>