<svg xmlns="http://www.w3.org/2000/svg" viewBox="0 0 25 25"><defs><style>.cls-1{fill:#ac1457;}</style></defs><title>icono-laboratorios</title><g id="Capa_2" data-name="Capa 2"><g id="Capa_1-2" data-name="Capa 1"><g id="Capa_1-2-2" data-name="Capa 1-2"><path class="cls-1" d="M7.51,15h.56v.72a.72.72,0,0,0,.72.72h1.84a.72.72,0,0,0,.72-.72h0V15H12a1.51,1.51,0,0,0,1.52-1.51V3A1.52,1.52,0,0,0,12,1.52h0V.72A.72.72,0,0,0,11.27,0h-3a.72.72,0,0,0-.72.72h0v.72A1.52,1.52,0,0,0,6,3H6V13.43A1.53,1.53,0,0,0,7.51,15Zm14.23,5.92h0A9.08,9.08,0,0,0,21,8.23a9,9,0,0,0-6-2.32V9a6,6,0,1,1,0,12H2.24A2.24,2.24,0,0,0,0,23.18a.74.74,0,0,0,.72.8H23.18a.72.72,0,0,0,.72-.72h0A2.19,2.19,0,0,0,21.74,20.94ZM4.88,19.5h9.75a.38.38,0,0,0,.39-.4v-.72a.38.38,0,0,0-.39-.4H4.88a.38.38,0,0,0-.4.4v.72A.38.38,0,0,0,4.88,19.5Z"/></g></g></g></svg>