<svg xmlns="http://www.w3.org/2000/svg" viewBox="0 0 24 16.8"><defs><style>.cls-1{fill:#20a6b6;}</style></defs><title>icono-medicamentos</title><g id="Capa_2" data-name="Capa 2"><g id="Capa_1-2" data-name="Capa 1"><g id="Capa_1-2-2" data-name="Capa 1-2"><path class="cls-1" d="M6.91,2.94A6.92,6.92,0,0,0,0,9.84a7.13,7.13,0,0,0,1.73,4.58L11.4,4.66A6.49,6.49,0,0,0,6.91,2.94Z"/><path class="cls-1" d="M13.81,9.84A6.58,6.58,0,0,0,12,5.27L2.33,15a7.13,7.13,0,0,0,4.58,1.73A6.92,6.92,0,0,0,13.81,9.84Z"/><path class="cls-1" d="M24,8.81H16.06V13a3.84,3.84,0,0,0,3.8,3.8h.34A3.84,3.84,0,0,0,24,13Z"/><path class="cls-1" d="M24,3.8A3.84,3.84,0,0,0,20.2,0h-.34a3.84,3.84,0,0,0-3.8,3.8V7.94H24Z"/></g></g></g></svg>