<svg xmlns="http://www.w3.org/2000/svg" viewBox="0 0 25 25"><defs><style>.cls-1{fill:#689f38;}</style></defs><title>icono-guias-clinicas</title><g id="Capa_2" data-name="Capa 2"><g id="Capa_1-2" data-name="Capa 1"><path class="cls-1" d="M15.27,14.18a5.52,5.52,0,0,1,1.09.11V.55A.54.54,0,0,0,15.82,0H.55A.54.54,0,0,0,0,.55V19.09a.55.55,0,0,0,.55.55H9.82A5.46,5.46,0,0,1,15.27,14.18ZM3.82,3.27h8.73a.55.55,0,0,1,.54.55.54.54,0,0,1-.54.54H3.82a.55.55,0,0,1-.55-.54A.55.55,0,0,1,3.82,3.27Zm0,3.28h8.73a.54.54,0,0,1,.54.54.55.55,0,0,1-.54.55H3.82a.55.55,0,0,1-.55-.55A.55.55,0,0,1,3.82,6.55Zm0,3.27h8.73a.55.55,0,0,1,0,1.09H3.82a.55.55,0,1,1,0-1.09Zm5.45,4.36H3.82a.55.55,0,1,1,0-1.09H9.27a.55.55,0,1,1,0,1.09Z"/><path class="cls-1" d="M15.27,15.27a4.37,4.37,0,1,0,4.37,4.37A4.37,4.37,0,0,0,15.27,15.27Zm0,6.55a.55.55,0,0,1-.54-.55.54.54,0,0,1,.54-.54.55.55,0,0,1,.55.54A.55.55,0,0,1,15.27,21.82Zm.55-2.18a.55.55,0,0,1-.55.54.54.54,0,0,1-.54-.54V18a.55.55,0,0,1,.54-.55.55.55,0,0,1,.55.55Z"/></g></g></svg>