<?xml version="1.0" encoding="utf-8"?>
<!-- Generator: Adobe Illustrator 23.0.6, SVG Export Plug-In . SVG Version: 6.00 Build 0)  -->
<svg version="1.1" id="Capa_1" xmlns="http://www.w3.org/2000/svg" xmlns:xlink="http://www.w3.org/1999/xlink" x="0px" y="0px"
	 viewBox="0 0 22.3 26" style="enable-background:new 0 0 22.3 26;" xml:space="preserve">
<style type="text/css">
	.st0{fill:#E30413;}
</style>
<title>icono-remover-lista</title>
<g>
	<g id="Capa_1-2">
		<path class="st0" d="M20.8,2.7h-5.9V1.5c0-0.8-0.7-1.5-1.5-1.5H9C8.2,0,7.5,0.7,7.5,1.5v1.2h-6C0.7,2.7,0,3.3,0,4.2c0,0,0,0,0,0
			v0.2c0,0.8,0.7,1.5,1.5,1.5h0.8v17.5c0,1.4,1.1,2.5,2.5,2.5l0,0h12.8c1.4,0,2.5-1.1,2.5-2.5c0,0,0,0,0,0V5.9h0.8
			c0.8,0,1.5-0.7,1.5-1.5V4.2C22.3,3.4,21.6,2.7,20.8,2.7z M7.6,23c0,0.7-0.6,1.2-1.3,1.2H5.6c-0.7,0-1.3-0.5-1.3-1.2c0,0,0,0,0,0
			V8.8c0-0.7,0.6-1.2,1.3-1.2c0,0,0,0,0,0h0.7c0.7,0,1.3,0.5,1.3,1.2V23z M12.8,23c0,0.7-0.6,1.2-1.3,1.2c0,0,0,0,0,0h-0.7
			c-0.7,0-1.3-0.5-1.3-1.2c0,0,0,0,0,0V8.8c0-0.7,0.6-1.2,1.3-1.2c0,0,0,0,0,0h0.7c0.7,0,1.3,0.5,1.3,1.2c0,0,0,0,0,0V23z M18,23
			c0,0.7-0.6,1.2-1.3,1.2H16c-0.7,0-1.3-0.5-1.3-1.2c0,0,0,0,0,0V8.8c0-0.7,0.6-1.2,1.3-1.2c0,0,0,0,0,0h0.6c0.7,0,1.3,0.5,1.3,1.2
			V23z M8.4,1.5c0-0.4,0.3-0.7,0.7-0.7h4.2c0.4,0,0.7,0.3,0.7,0.7v1.1H8.4V1.5z"/>
	</g>
</g>
</svg>
